<?xml version="1.0" encoding="UTF-8" standalone="no"?>
<svg
   xmlns:dc="http://purl.org/dc/elements/1.1/"
   xmlns:cc="http://creativecommons.org/ns#"
   xmlns:rdf="http://www.w3.org/1999/02/22-rdf-syntax-ns#"
   xmlns:svg="http://www.w3.org/2000/svg"
   xmlns="http://www.w3.org/2000/svg"
   xmlns:sodipodi="http://sodipodi.sourceforge.net/DTD/sodipodi-0.dtd"
   xmlns:inkscape="http://www.inkscape.org/namespaces/inkscape"
   id="svg89031"
   version="1.1"
   viewBox="0 0 93.468712 93.455109"
   height="93.455109mm"
   width="93.468712mm"
   sodipodi:docname="stamp.svg"
   inkscape:export-filename="D:\Jacob\Websites\shepherd-moon\stamp3.png"
   inkscape:export-xdpi="812.79999"
   inkscape:export-ydpi="812.79999"
   inkscape:version="0.92.0 r15299">
  <sodipodi:namedview
     pagecolor="#ffffff"
     bordercolor="#666666"
     borderopacity="1"
     objecttolerance="10"
     gridtolerance="10"
     guidetolerance="10"
     inkscape:pageopacity="0"
     inkscape:pageshadow="2"
     inkscape:window-width="1920"
     inkscape:window-height="1017"
     id="namedview4492"
     showgrid="false"
     inkscape:zoom="1.6193091"
     inkscape:cx="85.675866"
     inkscape:cy="122.84672"
     inkscape:window-x="1912"
     inkscape:window-y="-8"
     inkscape:window-maximized="1"
     inkscape:current-layer="g88943" />
  <defs
     id="defs89025">
    <path
       style="opacity:1;fill:#e6e6e6;fill-opacity:0.90588235;stroke:none;stroke-width:1.50000012;stroke-linecap:round;stroke-linejoin:round;stroke-miterlimit:4;stroke-dasharray:none;stroke-opacity:0.90588235;paint-order:stroke markers fill"
       d="M -1,267 C -1,249.87917 12.879171,236 29.999995,236 47.120825,236 61,249.87917 61,267"
       id="path6587" />
  </defs>
  <metadata
     id="metadata89028">
    <rdf:RDF>
      <cc:Work
         rdf:about="">
        <dc:format>image/svg+xml</dc:format>
        <dc:type
           rdf:resource="http://purl.org/dc/dcmitype/StillImage" />
        <dc:title />
      </cc:Work>
    </rdf:RDF>
  </metadata>
  <g
     transform="translate(60.341033,-72.61883)"
     id="layer1">
    <g
       transform="translate(-43.620328,-147.64881)"
       id="g88943">
      <path
         style="color:#000000;font-style:normal;font-variant:normal;font-weight:normal;font-stretch:normal;font-size:medium;line-height:normal;font-family:sans-serif;font-variant-ligatures:normal;font-variant-position:normal;font-variant-caps:normal;font-variant-numeric:normal;font-variant-alternates:normal;font-feature-settings:normal;text-indent:0;text-align:start;text-decoration:none;text-decoration-line:none;text-decoration-style:solid;text-decoration-color:#000000;letter-spacing:normal;word-spacing:normal;text-transform:none;writing-mode:lr-tb;direction:ltr;text-orientation:mixed;dominant-baseline:auto;baseline-shift:baseline;text-anchor:start;white-space:normal;shape-padding:0;clip-rule:nonzero;display:inline;overflow:visible;visibility:visible;opacity:0.3;isolation:auto;mix-blend-mode:normal;color-interpolation:sRGB;color-interpolation-filters:linearRGB;solid-color:#000000;solid-opacity:1;vector-effect:none;fill:#162d50;fill-opacity:0.90588235;fill-rule:nonzero;stroke:none;stroke-width:7.55905533;stroke-linecap:round;stroke-linejoin:round;stroke-miterlimit:4;stroke-dasharray:none;stroke-dashoffset:0;stroke-opacity:1;paint-order:stroke markers fill;color-rendering:auto;image-rendering:auto;shape-rendering:auto;text-rendering:auto;enable-background:accumulate"
         d="M 176.58203 33.003906 C 97.295334 33.003906 32.958984 97.338292 32.958984 176.625 C 32.958984 255.9117 97.295334 320.24805 176.58203 320.24805 C 255.86872 320.24805 320.20312 255.9117 320.20312 176.625 C 320.20312 97.338292 255.86872 33.003906 176.58203 33.003906 z M 176.58203 38.673828 C 252.80481 38.673828 314.5332 100.4022 314.5332 176.625 C 314.5332 252.84779 252.80481 314.57812 176.58203 314.57812 C 100.35925 314.57812 38.628906 252.84779 38.628906 176.625 C 38.628906 100.4022 100.35925 38.673828 176.58203 38.673828 z "
         transform="matrix(0.26458333,0,0,0.26458333,-16.720705,220.26764)"
         id="path5779" />
      <path
         style="color:#000000;font-style:normal;font-variant:normal;font-weight:normal;font-stretch:normal;font-size:medium;line-height:normal;font-family:sans-serif;font-variant-ligatures:normal;font-variant-position:normal;font-variant-caps:normal;font-variant-numeric:normal;font-variant-alternates:normal;font-feature-settings:normal;text-indent:0;text-align:start;text-decoration:none;text-decoration-line:none;text-decoration-style:solid;text-decoration-color:#000000;letter-spacing:normal;word-spacing:normal;text-transform:none;writing-mode:lr-tb;direction:ltr;text-orientation:mixed;dominant-baseline:auto;baseline-shift:baseline;text-anchor:start;white-space:normal;shape-padding:0;clip-rule:nonzero;display:inline;overflow:visible;visibility:visible;opacity:0.3;isolation:auto;mix-blend-mode:normal;color-interpolation:sRGB;color-interpolation-filters:linearRGB;solid-color:#000000;solid-opacity:1;vector-effect:none;fill:#162d50;fill-opacity:0.90588235;fill-rule:nonzero;stroke:none;stroke-width:7.55905533;stroke-linecap:round;stroke-linejoin:round;stroke-miterlimit:4;stroke-dasharray:none;stroke-dashoffset:0;stroke-opacity:1;paint-order:stroke markers fill;color-rendering:auto;image-rendering:auto;shape-rendering:auto;text-rendering:auto;enable-background:accumulate"
         d="M 176.23438 42.6875 L 168.10742 42.828125 L 168.39844 59.607422 L 171.8457 59.546875 L 171.77344 55.345703 L 176.13281 55.269531 C 176.22411 55.269531 176.39974 55.260434 176.6582 55.240234 C 176.93187 55.220324 177.24987 55.153895 177.61328 55.041016 C 177.9919 54.92791 178.39202 54.759535 178.81445 54.539062 C 179.23688 54.318616 179.64242 54.008014 180.03125 53.605469 C 181.24337 52.397002 181.83213 50.720058 181.79492 48.574219 C 181.77592 47.478458 181.57572 46.553423 181.19727 45.798828 C 180.81882 45.044233 180.35293 44.434943 179.79688 43.972656 C 179.25604 43.510218 178.66436 43.178641 178.02148 42.976562 C 177.37859 42.773981 176.78225 42.677421 176.23438 42.6875 z M 176.27148 46.158203 C 176.45411 46.155203 176.66104 46.189653 176.89062 46.261719 C 177.13517 46.318409 177.35757 46.436085 177.55859 46.615234 C 177.77457 46.778938 177.9549 47.026928 178.09766 47.359375 C 178.2401 47.676603 178.3149 48.102132 178.32422 48.634766 C 178.33662 49.350055 178.25562 49.91404 178.08008 50.328125 C 177.91981 50.741882 177.72002 51.064308 177.48047 51.296875 C 177.25589 51.513996 177.01353 51.655443 176.75586 51.720703 C 176.49822 51.786463 176.28654 51.821699 176.11914 51.824219 L 171.71289 51.900391 L 171.61523 46.238281 L 176.27148 46.158203 z "
         transform="matrix(0.26458333,0,0,0.26458333,-16.720705,220.26764)"
         id="path5771" />
      <path
         style="color:#000000;font-style:normal;font-variant:normal;font-weight:normal;font-stretch:normal;font-size:medium;line-height:normal;font-family:sans-serif;font-variant-ligatures:normal;font-variant-position:normal;font-variant-caps:normal;font-variant-numeric:normal;font-variant-alternates:normal;font-feature-settings:normal;text-indent:0;text-align:start;text-decoration:none;text-decoration-line:none;text-decoration-style:solid;text-decoration-color:#000000;letter-spacing:normal;word-spacing:normal;text-transform:none;writing-mode:lr-tb;direction:ltr;text-orientation:mixed;dominant-baseline:auto;baseline-shift:baseline;text-anchor:start;white-space:normal;shape-padding:0;clip-rule:nonzero;display:inline;overflow:visible;visibility:visible;opacity:0.3;isolation:auto;mix-blend-mode:normal;color-interpolation:sRGB;color-interpolation-filters:linearRGB;solid-color:#000000;solid-opacity:1;vector-effect:none;fill:#162d50;fill-opacity:0.90588235;fill-rule:nonzero;stroke:none;stroke-width:7.55905533;stroke-linecap:round;stroke-linejoin:round;stroke-miterlimit:4;stroke-dasharray:none;stroke-dashoffset:0;stroke-opacity:1;paint-order:stroke markers fill;color-rendering:auto;image-rendering:auto;shape-rendering:auto;text-rendering:auto;enable-background:accumulate"
         d="m 189.38477,42.443405 -2.44922,16.578125 3.45507,0.509766 0.89844,-6.074219 5.75782,0.84961 -0.89649,6.076171 3.47852,0.513672 2.44921,-16.578125 -3.47851,-0.513671 -1.04102,7.046874 L 191.79883,50 l 1.04101,-7.046875 z"
         transform="matrix(0.26458333,0,0,0.26458333,-16.508057,220.49149)"
         id="path5769" />
      <path
         style="color:#000000;font-style:normal;font-variant:normal;font-weight:normal;font-stretch:normal;font-size:medium;line-height:normal;font-family:sans-serif;font-variant-ligatures:normal;font-variant-position:normal;font-variant-caps:normal;font-variant-numeric:normal;font-variant-alternates:normal;font-feature-settings:normal;text-indent:0;text-align:start;text-decoration:none;text-decoration-line:none;text-decoration-style:solid;text-decoration-color:#000000;letter-spacing:normal;word-spacing:normal;text-transform:none;writing-mode:lr-tb;direction:ltr;text-orientation:mixed;dominant-baseline:auto;baseline-shift:baseline;text-anchor:start;white-space:normal;shape-padding:0;clip-rule:nonzero;display:inline;overflow:visible;visibility:visible;opacity:0.3;isolation:auto;mix-blend-mode:normal;color-interpolation:sRGB;color-interpolation-filters:linearRGB;solid-color:#000000;solid-opacity:1;vector-effect:none;fill:#162d50;fill-opacity:0.90588235;fill-rule:nonzero;stroke:none;stroke-width:7.55905533;stroke-linecap:round;stroke-linejoin:round;stroke-miterlimit:4;stroke-dasharray:none;stroke-dashoffset:0;stroke-opacity:1;paint-order:stroke markers fill;color-rendering:auto;image-rendering:auto;shape-rendering:auto;text-rendering:auto;enable-background:accumulate"
         d="m 158.12109,42.90239 -11.1289,1.970703 2.91797,16.480469 11.1289,-1.970704 -0.60937,-3.441406 -7.71094,1.367188 -0.50195,-2.833985 7.41992,-1.3125 -0.60938,-3.441406 -7.41992,1.314453 -0.5918,-3.349609 7.71094,-1.365235 z"
         transform="matrix(0.26458333,0,0,0.26458333,-16.508057,220.49149)"
         id="path5767" />
      <path
         style="color:#000000;font-style:normal;font-variant:normal;font-weight:normal;font-stretch:normal;font-size:medium;line-height:normal;font-family:sans-serif;font-variant-ligatures:normal;font-variant-position:normal;font-variant-caps:normal;font-variant-numeric:normal;font-variant-alternates:normal;font-feature-settings:normal;text-indent:0;text-align:start;text-decoration:none;text-decoration-line:none;text-decoration-style:solid;text-decoration-color:#000000;letter-spacing:normal;word-spacing:normal;text-transform:none;writing-mode:lr-tb;direction:ltr;text-orientation:mixed;dominant-baseline:auto;baseline-shift:baseline;text-anchor:start;white-space:normal;shape-padding:0;clip-rule:nonzero;display:inline;overflow:visible;visibility:visible;opacity:0.3;isolation:auto;mix-blend-mode:normal;color-interpolation:sRGB;color-interpolation-filters:linearRGB;solid-color:#000000;solid-opacity:1;vector-effect:none;fill:#162d50;fill-opacity:0.90588235;fill-rule:nonzero;stroke:none;stroke-width:7.55905533;stroke-linecap:round;stroke-linejoin:round;stroke-miterlimit:4;stroke-dasharray:none;stroke-dashoffset:0;stroke-opacity:1;paint-order:stroke markers fill;color-rendering:auto;image-rendering:auto;shape-rendering:auto;text-rendering:auto;enable-background:accumulate"
         d="m 211.06641,46.468796 -5.04883,15.957031 10.77539,3.408203 1.05469,-3.330078 -7.4668,-2.363281 0.86719,-2.742187 7.18359,2.273437 1.05274,-3.332031 -7.18165,-2.271485 1.02539,-3.24414 7.4668,2.361328 1.04688,-3.308594 z"
         transform="matrix(0.26458333,0,0,0.26458333,-16.508057,220.49149)"
         id="path5763" />
      <path
         style="color:#000000;font-style:normal;font-variant:normal;font-weight:normal;font-stretch:normal;font-size:medium;line-height:normal;font-family:sans-serif;font-variant-ligatures:normal;font-variant-position:normal;font-variant-caps:normal;font-variant-numeric:normal;font-variant-alternates:normal;font-feature-settings:normal;text-indent:0;text-align:start;text-decoration:none;text-decoration-line:none;text-decoration-style:solid;text-decoration-color:#000000;letter-spacing:normal;word-spacing:normal;text-transform:none;writing-mode:lr-tb;direction:ltr;text-orientation:mixed;dominant-baseline:auto;baseline-shift:baseline;text-anchor:start;white-space:normal;shape-padding:0;clip-rule:nonzero;display:inline;overflow:visible;visibility:visible;opacity:0.3;isolation:auto;mix-blend-mode:normal;color-interpolation:sRGB;color-interpolation-filters:linearRGB;solid-color:#000000;solid-opacity:1;vector-effect:none;fill:#162d50;fill-opacity:0.90588235;fill-rule:nonzero;stroke:none;stroke-width:7.55905533;stroke-linecap:round;stroke-linejoin:round;stroke-miterlimit:4;stroke-dasharray:none;stroke-dashoffset:0;stroke-opacity:1;paint-order:stroke markers fill;color-rendering:auto;image-rendering:auto;shape-rendering:auto;text-rendering:auto;enable-background:accumulate"
         d="m 138.02734,47.128952 -3.32031,1.15625 2.3418,6.728516 -5.49805,1.914062 -2.34375,-6.726562 -3.29883,1.148437 5.51172,15.826172 3.29883,-1.148437 -2.01953,-5.800782 5.49805,-1.914062 2.01953,5.798828 3.32031,-1.15625 z"
         transform="matrix(0.26458333,0,0,0.26458333,-16.508057,220.49149)"
         id="path5761" />
      <path
         style="color:#000000;font-style:normal;font-variant:normal;font-weight:normal;font-stretch:normal;font-size:medium;line-height:normal;font-family:sans-serif;font-variant-ligatures:normal;font-variant-position:normal;font-variant-caps:normal;font-variant-numeric:normal;font-variant-alternates:normal;font-feature-settings:normal;text-indent:0;text-align:start;text-decoration:none;text-decoration-line:none;text-decoration-style:solid;text-decoration-color:#000000;letter-spacing:normal;word-spacing:normal;text-transform:none;writing-mode:lr-tb;direction:ltr;text-orientation:mixed;dominant-baseline:auto;baseline-shift:baseline;text-anchor:start;white-space:normal;shape-padding:0;clip-rule:nonzero;display:inline;overflow:visible;visibility:visible;opacity:0.3;isolation:auto;mix-blend-mode:normal;color-interpolation:sRGB;color-interpolation-filters:linearRGB;solid-color:#000000;solid-opacity:1;vector-effect:none;fill:#162d50;fill-opacity:0.90588235;fill-rule:nonzero;stroke:none;stroke-width:7.55905533;stroke-linecap:round;stroke-linejoin:round;stroke-miterlimit:4;stroke-dasharray:none;stroke-dashoffset:0;stroke-opacity:1;paint-order:stroke markers fill;color-rendering:auto;image-rendering:auto;shape-rendering:auto;text-rendering:auto;enable-background:accumulate"
         d="M 231.26172 54.179688 L 223.69922 69.160156 L 226.75586 70.703125 L 228.60742 67.035156 L 232.29688 68.896484 C 232.79962 69.150292 233.18897 69.44172 233.4668 69.769531 C 233.74462 70.097317 233.93738 70.441537 234.04492 70.802734 C 234.16594 71.170785 234.2229 71.532778 234.21484 71.886719 C 234.20684 72.240659 234.17079 72.570887 234.10156 72.876953 C 234.03236 73.182994 233.94287 73.453548 233.83984 73.691406 C 233.75724 73.922663 233.69255 74.086648 233.64453 74.181641 L 235.19336 74.962891 L 236.72266 75.734375 C 236.93531 75.313159 237.12076 74.844862 237.2793 74.328125 C 237.43784 73.811388 237.53904 73.274806 237.58203 72.716797 C 237.64543 72.152035 237.64402 71.578847 237.57812 71 C 237.51913 70.407546 237.38173 69.835392 237.16602 69.283203 C 237.75899 69.088053 238.3149 68.764619 238.83398 68.310547 C 239.36665 67.863328 239.82777 67.251088 240.21875 66.476562 C 241.21334 64.506321 241.43153 62.673671 240.87305 60.976562 C 240.68465 60.404041 240.43952 59.913506 240.13477 59.503906 C 239.83002 59.094306 239.52402 58.751978 239.21875 58.478516 C 238.93393 58.198355 238.67328 57.990587 238.43555 57.853516 C 238.20469 57.702841 238.06216 57.613402 238.00781 57.585938 L 231.26172 54.179688 z M 232.76367 58.800781 L 236.43359 60.652344 C 236.56947 60.720904 236.74879 60.854435 236.97266 61.052734 C 237.2034 61.237402 237.38665 61.500909 237.52148 61.841797 C 237.67677 62.175932 237.73523 62.597009 237.69922 63.107422 C 237.68372 63.611082 237.49927 64.217258 237.14258 64.923828 C 236.91623 65.37213 236.64586 65.686463 236.33203 65.869141 C 236.03865 66.045013 235.73407 66.145922 235.41406 66.171875 C 235.10088 66.184225 234.79928 66.153965 234.51367 66.078125 C 234.23491 65.988675 234.01458 65.902706 233.85156 65.820312 L 230.16406 63.957031 L 232.76367 58.800781 z "
         transform="matrix(0.26458333,0,0,0.26458333,-16.720705,220.26764)"
         id="path5755" />
      <path
         style="color:#000000;font-style:normal;font-variant:normal;font-weight:normal;font-stretch:normal;font-size:medium;line-height:normal;font-family:sans-serif;font-variant-ligatures:normal;font-variant-position:normal;font-variant-caps:normal;font-variant-numeric:normal;font-variant-alternates:normal;font-feature-settings:normal;text-indent:0;text-align:start;text-decoration:none;text-decoration-line:none;text-decoration-style:solid;text-decoration-color:#000000;letter-spacing:normal;word-spacing:normal;text-transform:none;writing-mode:lr-tb;direction:ltr;text-orientation:mixed;dominant-baseline:auto;baseline-shift:baseline;text-anchor:start;white-space:normal;shape-padding:0;clip-rule:nonzero;display:inline;overflow:visible;visibility:visible;opacity:0.3;isolation:auto;mix-blend-mode:normal;color-interpolation:sRGB;color-interpolation-filters:linearRGB;solid-color:#000000;solid-opacity:1;vector-effect:none;fill:#162d50;fill-opacity:0.90588235;fill-rule:nonzero;stroke:none;stroke-width:7.55905533;stroke-linecap:round;stroke-linejoin:round;stroke-miterlimit:4;stroke-dasharray:none;stroke-dashoffset:0;stroke-opacity:1;paint-order:stroke markers fill;color-rendering:auto;image-rendering:auto;shape-rendering:auto;text-rendering:auto;enable-background:accumulate"
         d="m 114.88867,56.876999 c -0.99032,0.02934 -2.02115,0.334047 -3.09179,0.914063 -1.73984,0.942538 -2.83354,2.167585 -3.28126,3.673828 -0.12265,0.412674 -0.18445,0.809976 -0.18554,1.191406 0.005,0.360819 0.0302,0.693014 0.0742,0.998047 0.0574,0.297877 0.1295,0.560527 0.21875,0.789062 0.082,0.215207 0.14847,0.371112 0.19922,0.464844 0.058,0.107087 0.1527,0.280603 0.2832,0.521485 0.13663,0.220268 0.32547,0.472861 0.56641,0.757812 0.23365,0.271572 0.5284,0.544016 0.88476,0.818359 0.34911,0.260889 0.75812,0.473002 1.22656,0.634766 0.24147,0.09424 0.52393,0.166151 0.84571,0.216797 0.32177,0.0514 0.67493,0.06703 1.0625,0.04687 0.38032,-0.03301 0.79774,-0.110659 1.25,-0.234375 0.46563,-0.131074 0.95237,-0.335826 1.46093,-0.611328 0.66917,-0.362558 1.26739,-0.600261 1.79493,-0.712891 0.52028,-0.126035 0.93547,-0.125984 1.24609,0 0.17957,0.07584 0.31954,0.190301 0.41992,0.34375 0.11377,0.146192 0.21378,0.300434 0.30078,0.460938 l 0.041,0.263671 c 0.0324,0.155566 0.007,0.368474 -0.0723,0.636719 -0.087,0.254841 -0.26499,0.549043 -0.5332,0.884766 -0.27547,0.322343 -0.71415,0.646382 -1.31641,0.972656 -0.37473,0.203062 -0.73489,0.338533 -1.08008,0.404297 -0.35241,0.0514 -0.67488,0.06054 -0.96874,0.0293 -0.28052,-0.03855 -0.52498,-0.103975 -0.73243,-0.199219 -0.19406,-0.102551 -0.32341,-0.215496 -0.38867,-0.335937 l -3.05078,1.654297 c 0.32626,0.602253 0.77911,1.101599 1.35742,1.498046 0.58445,0.375786 1.23262,0.630381 1.94531,0.763672 0.72608,0.126992 1.48129,0.131972 2.26758,0.01758 0.78629,-0.114343 1.55522,-0.373276 2.30469,-0.779296 v -0.002 c 1.03052,-0.558261 1.82745,-1.179275 2.39062,-1.865234 0.56319,-0.685934 0.94604,-1.369862 1.14844,-2.050781 0.21579,-0.688151 0.2857,-1.339711 0.21094,-1.957031 -0.0614,-0.62458 -0.20744,-1.151808 -0.43945,-1.580079 -0.81203,-1.498935 -1.95495,-2.376649 -3.42774,-2.634765 -1.48003,-0.271496 -3.16987,0.107177 -5.07031,1.136718 -0.7227,0.39156 -1.3223,0.516103 -1.79688,0.375 -0.16505,-0.04913 -0.29889,-0.123884 -0.40429,-0.222656 -0.11266,-0.112126 -0.21211,-0.214168 -0.29688,-0.30664 -0.0993,-0.119358 -0.18532,-0.245111 -0.25781,-0.378907 l 0.01,-0.03125 -0.0762,-0.140625 c -0.0507,-0.09378 -0.089,-0.228173 -0.11523,-0.404296 -0.0262,-0.176126 -0.002,-0.370316 0.0723,-0.583985 0.0881,-0.220875 0.24626,-0.45525 0.47656,-0.701172 0.24368,-0.253178 0.60804,-0.51047 1.08984,-0.771484 0.49519,-0.268195 0.92771,-0.424341 1.30078,-0.470703 0.37307,-0.04636 0.69102,-0.02021 0.95313,0.08008 0.25484,0.08693 0.46717,0.223006 0.63672,0.408203 0.16229,0.171843 0.28799,0.337543 0.375,0.498047 l -0.0234,-0.03906 3.10742,-1.552734 c -0.029,-0.05357 -0.11336,-0.189936 -0.25,-0.410156 -0.13664,-0.220271 -0.33163,-0.470353 -0.58594,-0.748047 -0.2543,-0.27772 -0.57642,-0.552963 -0.96679,-0.826172 -0.39038,-0.273159 -0.84801,-0.493353 -1.3711,-0.660156 -0.56526,-0.180643 -1.14409,-0.261743 -1.73828,-0.244141 z"
         transform="matrix(0.26458333,0,0,0.26458333,-16.508057,220.49149)"
         id="path5753" />
      <path
         style="color:#000000;font-style:normal;font-variant:normal;font-weight:normal;font-stretch:normal;font-size:medium;line-height:normal;font-family:sans-serif;font-variant-ligatures:normal;font-variant-position:normal;font-variant-caps:normal;font-variant-numeric:normal;font-variant-alternates:normal;font-feature-settings:normal;text-indent:0;text-align:start;text-decoration:none;text-decoration-line:none;text-decoration-style:solid;text-decoration-color:#000000;letter-spacing:normal;word-spacing:normal;text-transform:none;writing-mode:lr-tb;direction:ltr;text-orientation:mixed;dominant-baseline:auto;baseline-shift:baseline;text-anchor:start;white-space:normal;shape-padding:0;clip-rule:nonzero;display:inline;overflow:visible;visibility:visible;opacity:0.3;isolation:auto;mix-blend-mode:normal;color-interpolation:sRGB;color-interpolation-filters:linearRGB;solid-color:#000000;solid-opacity:1;vector-effect:none;fill:#162d50;fill-opacity:0.90588235;fill-rule:nonzero;stroke:none;stroke-width:7.55905533;stroke-linecap:round;stroke-linejoin:round;stroke-miterlimit:4;stroke-dasharray:none;stroke-dashoffset:0;stroke-opacity:1;paint-order:stroke markers fill;color-rendering:auto;image-rendering:auto;shape-rendering:auto;text-rendering:auto;enable-background:accumulate"
         d="M 176.57812 63.240234 C 113.99004 63.240234 63.195313 114.0353 63.195312 176.625 C 63.195312 239.21465 113.99004 290.01172 176.57812 290.01172 C 239.16623 290.01172 289.9668 239.21465 289.9668 176.625 C 289.9668 114.0353 239.16623 63.240234 176.57812 63.240234 z M 176.57812 68.736328 C 206.07745 68.736328 232.79491 80.560933 252.26562 99.724609 C 226.95944 104.91069 196.1586 113.4828 161.66992 125.14062 C 164.30266 127.53533 166.8137 130.04086 169.2207 132.63086 C 210.69443 118.75304 243.54028 111.0553 262.35156 111.15625 C 267.2897 117.61746 271.52114 124.64838 274.91406 132.14258 C 265.47627 145.8175 242.9978 165.26593 211.04492 187.35156 L 211.58984 188.48633 A 2.5224995 2.5225625 0 0 1 210.02539 191.99805 L 199.72266 195.02344 C 197.31231 196.62562 194.84737 198.23948 192.34766 199.86328 C 194.95746 200.38527 197.46291 200.87849 199.5918 201.25977 A 2.5224995 2.5225625 0 0 1 199.5957 201.25977 C 200.69104 201.45971 201.84576 202.66899 202.07227 203.58594 C 202.29866 204.5029 202.14738 205.09939 202.02148 205.60547 C 201.89562 206.11151 201.73281 206.51925 201.57422 206.86719 C 201.44421 207.15255 201.32969 207.35541 201.14453 207.63672 C 201.11053 207.69192 200.47466 208.71663 199.24805 209.7207 C 197.98867 210.75157 196.02847 211.9431 193.125 212.87695 A 2.5224995 2.5225625 0 0 1 192.9082 212.93164 C 185.17808 214.68817 180.40023 216.13123 176.27344 216.93555 C 172.41084 217.68836 169.04196 217.81259 164.99609 216.9707 C 145.32467 228.83313 123.65613 241.01271 100.48242 253.125 C 99.990303 252.63543 99.506108 252.14146 99.023438 251.64258 C 121.83357 239.68018 143.0991 227.65518 162.30469 215.97852 C 161.90179 215.7098 161.53302 215.40711 161.12891 215.08008 C 160.21071 214.33698 159.28235 213.44248 158.42773 212.50391 C 157.5731 211.56542 156.79835 210.59664 156.19922 209.63086 C 155.95128 209.23083 155.73146 208.8333 155.54883 208.38672 A 37.413182 207.57948 64.773377 0 1 93.001953 244.87305 C 92.377465 244.10902 91.763879 243.33604 91.160156 242.55469 C 112.26341 231.49432 132.97263 219.69508 152.83594 206.63281 C 131.63268 194.25493 125.89101 176.24365 126.92188 159.25195 C 127.31633 152.75044 128.60894 146.38484 130.25391 140.43945 A 138.27077 138.27422 0 0 0 90.730469 111.25781 C 110.43421 85.411667 141.54373 68.738281 176.57812 68.738281 L 176.57812 68.736328 z M 282.94727 158.48828 C 283.94442 164.3857 284.46875 170.44229 284.46875 176.625 C 284.46875 236.24391 236.19556 284.51562 176.57812 284.51562 C 170.47786 284.51562 164.49886 284.00053 158.67578 283.0293 A 138.27077 138.27422 0 0 0 167.43164 241.60156 C 151.72925 250.86775 135.80783 259.76811 119.70508 268.33203 C 118.72713 267.72436 117.75945 267.10241 116.80273 266.46484 C 187.95511 228.7557 246.37789 189.73783 282.94727 158.48828 z "
         transform="matrix(0.26458333,0,0,0.26458333,-16.720705,220.26764)"
         id="path5749" />
      <path
         style="color:#000000;font-style:normal;font-variant:normal;font-weight:normal;font-stretch:normal;font-size:medium;line-height:normal;font-family:sans-serif;font-variant-ligatures:normal;font-variant-position:normal;font-variant-caps:normal;font-variant-numeric:normal;font-variant-alternates:normal;font-feature-settings:normal;text-indent:0;text-align:start;text-decoration:none;text-decoration-line:none;text-decoration-style:solid;text-decoration-color:#000000;letter-spacing:normal;word-spacing:normal;text-transform:none;writing-mode:lr-tb;direction:ltr;text-orientation:mixed;dominant-baseline:auto;baseline-shift:baseline;text-anchor:start;white-space:normal;shape-padding:0;clip-rule:nonzero;display:inline;overflow:visible;visibility:visible;opacity:0.3;isolation:auto;mix-blend-mode:normal;color-interpolation:sRGB;color-interpolation-filters:linearRGB;solid-color:#000000;solid-opacity:1;vector-effect:none;fill:#162d50;fill-opacity:0.90588235;fill-rule:nonzero;stroke:none;stroke-width:7.55905533;stroke-linecap:round;stroke-linejoin:round;stroke-miterlimit:4;stroke-dasharray:none;stroke-dashoffset:0;stroke-opacity:1;paint-order:stroke markers fill;color-rendering:auto;image-rendering:auto;shape-rendering:auto;text-rendering:auto;enable-background:accumulate"
         d="M 250.5957 64.837891 L 240.70898 78.398438 L 242.0918 79.40625 C 242.46074 79.675302 242.94564 80.019283 243.54492 80.4375 C 244.16546 80.852366 244.85169 81.240241 245.60547 81.601562 C 246.38052 81.959559 247.20442 82.249916 248.07812 82.472656 C 248.95183 82.695396 249.84312 82.752184 250.75195 82.642578 C 251.67308 82.541967 252.58397 82.235979 253.48438 81.724609 C 254.39375 81.200968 255.26082 80.373627 256.08594 79.242188 C 256.7586 78.319832 257.22728 77.444663 257.49023 76.619141 C 257.76214 75.78132 257.89611 75.003619 257.89258 74.285156 C 257.91028 73.563367 257.81087 72.898121 257.5957 72.289062 C 257.40178 71.676679 257.16975 71.130817 256.89844 70.650391 C 256.58691 70.121761 256.23093 69.626464 255.83203 69.166016 C 255.43312 68.705546 255.01211 68.27592 254.56836 67.876953 C 254.12464 67.477986 253.67573 67.113092 253.2207 66.78125 C 252.78694 66.446081 252.37401 66.134673 251.98047 65.847656 L 250.5957 64.837891 z M 251.32422 69.693359 C 252.12129 70.331167 252.77144 70.936978 253.27539 71.511719 C 253.79163 72.095454 254.14065 72.689554 254.32227 73.292969 C 254.51286 73.884087 254.52915 74.497399 254.36719 75.132812 C 254.20521 75.768252 253.84982 76.460778 253.30273 77.210938 C 252.83635 77.850459 252.34169 78.337147 251.81641 78.669922 C 251.30342 79.011692 250.7322 79.197713 250.10547 79.230469 C 249.47875 79.263129 248.79045 79.14873 248.04102 78.884766 C 247.30055 78.608485 246.4727 78.182691 245.55469 77.607422 L 251.32422 69.693359 z "
         transform="matrix(0.26458333,0,0,0.26458333,-16.720705,220.26764)"
         id="path5743" />
      <path
         style="color:#000000;font-style:normal;font-variant:normal;font-weight:normal;font-stretch:normal;font-size:medium;line-height:normal;font-family:sans-serif;font-variant-ligatures:normal;font-variant-position:normal;font-variant-caps:normal;font-variant-numeric:normal;font-variant-alternates:normal;font-feature-settings:normal;text-indent:0;text-align:start;text-decoration:none;text-decoration-line:none;text-decoration-style:solid;text-decoration-color:#000000;letter-spacing:normal;word-spacing:normal;text-transform:none;writing-mode:lr-tb;direction:ltr;text-orientation:mixed;dominant-baseline:auto;baseline-shift:baseline;text-anchor:start;white-space:normal;shape-padding:0;clip-rule:nonzero;display:inline;overflow:visible;visibility:visible;opacity:0.3;isolation:auto;mix-blend-mode:normal;color-interpolation:sRGB;color-interpolation-filters:linearRGB;solid-color:#000000;solid-opacity:1;vector-effect:none;fill:#162d50;fill-opacity:0.90588235;fill-rule:nonzero;stroke:none;stroke-width:7.55905533;stroke-linecap:round;stroke-linejoin:round;stroke-miterlimit:4;stroke-dasharray:none;stroke-dashoffset:0;stroke-opacity:1;paint-order:stroke markers fill;color-rendering:auto;image-rendering:auto;shape-rendering:auto;text-rendering:auto;enable-background:accumulate"
         d="m 89.164062,73.494128 -8.261718,7.646484 2.357422,2.546875 2.849609,-2.636719 9.025391,9.75 2.564453,-2.373047 -9.027344,-9.75 2.849609,-2.636718 z"
         transform="matrix(0.26458333,0,0,0.26458333,-16.508057,220.49149)"
         id="path5737" />
      <path
         style="color:#000000;font-style:normal;font-variant:normal;font-weight:normal;font-stretch:normal;font-size:medium;line-height:normal;font-family:sans-serif;font-variant-ligatures:normal;font-variant-position:normal;font-variant-caps:normal;font-variant-numeric:normal;font-variant-alternates:normal;font-feature-settings:normal;text-indent:0;text-align:start;text-decoration:none;text-decoration-line:none;text-decoration-style:solid;text-decoration-color:#000000;letter-spacing:normal;word-spacing:normal;text-transform:none;writing-mode:lr-tb;direction:ltr;text-orientation:mixed;dominant-baseline:auto;baseline-shift:baseline;text-anchor:start;white-space:normal;shape-padding:0;clip-rule:nonzero;display:inline;overflow:visible;visibility:visible;opacity:0.3;isolation:auto;mix-blend-mode:normal;color-interpolation:sRGB;color-interpolation-filters:linearRGB;solid-color:#000000;solid-opacity:1;vector-effect:none;fill:#162d50;fill-opacity:0.90588235;fill-rule:nonzero;stroke:none;stroke-width:7.55905533;stroke-linecap:round;stroke-linejoin:round;stroke-miterlimit:4;stroke-dasharray:none;stroke-dashoffset:0;stroke-opacity:1;paint-order:stroke markers fill;color-rendering:auto;image-rendering:auto;shape-rendering:auto;text-rendering:auto;enable-background:accumulate"
         d="m 75.132812,87.244128 -2.189453,2.751953 5.574219,4.435547 -3.626953,4.554687 -5.572266,-4.435547 -2.175781,2.732422 13.111328,10.4375 2.175782,-2.73242 -4.804688,-3.82617 3.625,-4.554691 4.804688,3.824221 2.191406,-2.750002 z"
         transform="matrix(0.26458333,0,0,0.26458333,-16.508057,220.49149)"
         id="path5731" />
      <path
         style="color:#000000;font-style:normal;font-variant:normal;font-weight:normal;font-stretch:normal;font-size:medium;line-height:normal;font-family:sans-serif;font-variant-ligatures:normal;font-variant-position:normal;font-variant-caps:normal;font-variant-numeric:normal;font-variant-alternates:normal;font-feature-settings:normal;text-indent:0;text-align:start;text-decoration:none;text-decoration-line:none;text-decoration-style:solid;text-decoration-color:#000000;letter-spacing:normal;word-spacing:normal;text-transform:none;writing-mode:lr-tb;direction:ltr;text-orientation:mixed;dominant-baseline:auto;baseline-shift:baseline;text-anchor:start;white-space:normal;shape-padding:0;clip-rule:nonzero;display:inline;overflow:visible;visibility:visible;opacity:0.3;isolation:auto;mix-blend-mode:normal;color-interpolation:sRGB;color-interpolation-filters:linearRGB;solid-color:#000000;solid-opacity:1;vector-effect:none;fill:#162d50;fill-opacity:0.90588235;fill-rule:nonzero;stroke:none;stroke-width:7.55905533;stroke-linecap:round;stroke-linejoin:round;stroke-miterlimit:4;stroke-dasharray:none;stroke-dashoffset:0;stroke-opacity:1;paint-order:stroke markers fill;color-rendering:auto;image-rendering:auto;shape-rendering:auto;text-rendering:auto;enable-background:accumulate"
         d="m 276.64453,87.287098 -13.27148,10.269532 2.18164,2.81836 5.4707,-4.234376 -3.69727,6.527346 2.15235,2.7793 7.09961,-1.94336 -5.38086,4.16406 2.17969,2.81836 13.27148,-10.27149 -2.25,-2.906247 -11.78906,3.494137 6.29687,-10.58984 z"
         transform="matrix(0.26458333,0,0,0.26458333,-16.508057,220.49149)"
         id="path5729" />
      <path
         style="color:#000000;font-style:normal;font-variant:normal;font-weight:normal;font-stretch:normal;font-size:medium;line-height:normal;font-family:sans-serif;font-variant-ligatures:normal;font-variant-position:normal;font-variant-caps:normal;font-variant-numeric:normal;font-variant-alternates:normal;font-feature-settings:normal;text-indent:0;text-align:start;text-decoration:none;text-decoration-line:none;text-decoration-style:solid;text-decoration-color:#000000;letter-spacing:normal;word-spacing:normal;text-transform:none;writing-mode:lr-tb;direction:ltr;text-orientation:mixed;dominant-baseline:auto;baseline-shift:baseline;text-anchor:start;white-space:normal;shape-padding:0;clip-rule:nonzero;display:inline;overflow:visible;visibility:visible;opacity:0.3;isolation:auto;mix-blend-mode:normal;color-interpolation:sRGB;color-interpolation-filters:linearRGB;solid-color:#000000;solid-opacity:1;vector-effect:none;fill:#162d50;fill-opacity:0.90588235;fill-rule:nonzero;stroke:none;stroke-width:7.55905533;stroke-linecap:round;stroke-linejoin:round;stroke-miterlimit:4;stroke-dasharray:none;stroke-dashoffset:0;stroke-opacity:1;paint-order:stroke markers fill;color-rendering:auto;image-rendering:auto;shape-rendering:auto;text-rendering:auto;enable-background:accumulate"
         d="m 65.798828,106.14062 c -0.696284,0.032 -1.379384,0.15018 -2.048828,0.35352 -0.682759,0.19608 -1.324558,0.47488 -1.925781,0.83789 -0.601224,0.36301 -1.151393,0.80801 -1.650391,1.33203 -0.512313,0.51664 -0.949212,1.09948 -1.310547,1.75196 -0.560437,1.01198 -0.894032,2.07174 -1.001953,3.17773 -0.100545,1.09266 -0.0041,2.15692 0.292969,3.19141 0.30444,1.02117 0.796322,1.97136 1.474609,2.85156 0.664971,0.87284 1.503648,1.58994 2.515625,2.15039 1.011977,0.5605 2.071746,0.89411 3.177735,1.00195 1.092673,0.10059 2.152578,0.008 3.179687,-0.27539 1.034484,-0.29704 1.98653,-0.77839 2.859375,-1.44336 0.880219,-0.6783 1.601672,-1.52317 2.16211,-2.53515 0.361332,-0.65245 0.63112,-1.3283 0.810546,-2.0293 0.166111,-0.70838 0.24371,-1.413 0.232422,-2.11524 -0.01129,-0.70219 -0.108268,-1.39102 -0.291015,-2.0664 -0.182748,-0.6754 -0.444786,-1.31666 -0.78711,-1.92383 l -3.476562,0.99609 c 0.310974,0.38103 0.558737,0.79738 0.74414,1.24805 0.179462,0.42996 0.293848,0.88434 0.341797,1.36328 0.04795,0.47894 0.02513,0.9627 -0.07031,1.44922 -0.09545,0.48653 -0.26881,0.95549 -0.519532,1.4082 -0.324461,0.58588 -0.7482,1.08298 -1.269531,1.49024 -0.513956,0.3939 -1.069921,0.67533 -1.669922,0.84765 -0.613315,0.16504 -1.242053,0.21746 -1.886718,0.15626 -0.644665,-0.0612 -1.267991,-0.25803 -1.867188,-0.58985 -0.599197,-0.33184 -1.094338,-0.75361 -1.488281,-1.26758 -0.393943,-0.51394 -0.677311,-1.07186 -0.84961,-1.67187 -0.185611,-0.60737 -0.248727,-1.23229 -0.1875,-1.87696 0.0686,-0.65797 0.265381,-1.28131 0.589844,-1.86718 0.250722,-0.45274 0.556215,-0.84848 0.917969,-1.1875 0.361754,-0.3391 0.759999,-0.61471 1.191406,-0.82813 0.431408,-0.21357 0.882472,-0.35529 1.355469,-0.42383 0.480371,-0.0816 0.96517,-0.0908 1.453125,-0.0293 z"
         transform="matrix(0.26458333,0,0,0.26458333,-16.508057,220.49149)"
         id="path5723" />
      <path
         style="color:#000000;font-style:normal;font-variant:normal;font-weight:normal;font-stretch:normal;font-size:medium;line-height:normal;font-family:sans-serif;font-variant-ligatures:normal;font-variant-position:normal;font-variant-caps:normal;font-variant-numeric:normal;font-variant-alternates:normal;font-feature-settings:normal;text-indent:0;text-align:start;text-decoration:none;text-decoration-line:none;text-decoration-style:solid;text-decoration-color:#000000;letter-spacing:normal;word-spacing:normal;text-transform:none;writing-mode:lr-tb;direction:ltr;text-orientation:mixed;dominant-baseline:auto;baseline-shift:baseline;text-anchor:start;white-space:normal;shape-padding:0;clip-rule:nonzero;display:inline;overflow:visible;visibility:visible;opacity:0.3;isolation:auto;mix-blend-mode:normal;color-interpolation:sRGB;color-interpolation-filters:linearRGB;solid-color:#000000;solid-opacity:1;vector-effect:none;fill:#162d50;fill-opacity:0.90588235;fill-rule:nonzero;stroke:none;stroke-width:7.55905533;stroke-linecap:round;stroke-linejoin:round;stroke-miterlimit:4;stroke-dasharray:none;stroke-dashoffset:0;stroke-opacity:1;paint-order:stroke markers fill;color-rendering:auto;image-rendering:auto;shape-rendering:auto;text-rendering:auto;enable-background:accumulate"
         d="M 140.99609 107.36719 L 139.25195 107.79492 L 141.79297 115.11914 C 134.84053 135.34301 110.48749 182.52787 157.73828 206.52344 C 157.25952 208.00869 162.69283 213.85015 164.73242 214.33008 C 172.99772 216.27527 176.74691 214.01775 192.34766 210.47266 C 197.60211 208.78265 199.00391 206.33008 199.00391 206.33008 C 199.22993 206.01637 200.24692 203.94361 199.14258 203.74219 C 195.2437 203.04396 190.37811 202.04467 185.47266 201.05469 C 184.32255 200.13423 183.0619 199.30251 181.72266 198.56055 C 182.58696 199.34821 183.38959 200.0896 184.16602 200.79297 C 181.48747 200.25506 178.84733 199.73092 176.31445 199.26562 L 180.63672 197.99805 C 181.00145 198.18212 181.36769 198.36398 181.72266 198.56055 C 181.48606 198.34474 181.23851 198.11324 180.99609 197.89062 L 209.31641 189.57812 L 208.54688 187.98242 L 205.60352 188.83008 C 188.29253 162.62929 172.65136 132.14677 143.87695 114.89062 L 140.99609 107.36719 z M 144.89453 117.55664 C 161.68243 140.92882 170.44886 164.88582 172.86719 189.82227 C 172.68124 189.61931 172.4973 189.42019 172.31055 189.21289 L 144.89453 117.55664 z M 142.67383 117.65625 L 163.69336 178.22461 C 154.89505 165.24389 146.47128 146.35624 142.67383 117.65625 z M 204.38281 189.17969 L 179.35156 196.37891 C 178.9993 196.04707 178.63292 195.69251 178.27148 195.3457 C 190.29839 189.44113 197.08186 189.15127 204.38281 189.17969 z M 164.75195 194.21094 C 166.20389 194.18824 167.7527 194.28623 169.3457 194.50586 L 170.66406 198.30469 C 168.62557 197.99477 166.79206 197.76554 165.29102 197.66406 C 164.65659 197.55256 159.78719 201.53472 157.9043 206.11328 C 151.889 198.09611 156.91177 194.3444 164.75195 194.21094 z M 176.48242 196.23828 C 176.7039 196.31618 176.92414 196.39372 177.14453 196.47461 L 177.12695 196.85352 C 177.17235 196.86152 177.22226 196.87727 177.26758 196.88477 L 177.38672 196.56641 C 177.57343 196.63631 177.75988 196.70717 177.94531 196.78125 L 175.47656 197.49023 L 175.24805 196.89258 C 175.6593 196.67487 176.08266 196.44426 176.48242 196.23828 z "
         transform="matrix(0.26458333,0,0,0.26458333,-16.720705,220.26764)"
         id="path5717" />
      <path
         style="color:#000000;font-style:normal;font-variant:normal;font-weight:normal;font-stretch:normal;font-size:medium;line-height:normal;font-family:sans-serif;font-variant-ligatures:normal;font-variant-position:normal;font-variant-caps:normal;font-variant-numeric:normal;font-variant-alternates:normal;font-feature-settings:normal;text-indent:0;text-align:start;text-decoration:none;text-decoration-line:none;text-decoration-style:solid;text-decoration-color:#000000;letter-spacing:normal;word-spacing:normal;text-transform:none;writing-mode:lr-tb;direction:ltr;text-orientation:mixed;dominant-baseline:auto;baseline-shift:baseline;text-anchor:start;white-space:normal;shape-padding:0;clip-rule:nonzero;display:inline;overflow:visible;visibility:visible;opacity:0.3;isolation:auto;mix-blend-mode:normal;color-interpolation:sRGB;color-interpolation-filters:linearRGB;solid-color:#000000;solid-opacity:1;vector-effect:none;fill:#162d50;fill-opacity:0.90588235;fill-rule:nonzero;stroke:none;stroke-width:7.55905533;stroke-linecap:round;stroke-linejoin:round;stroke-miterlimit:4;stroke-dasharray:none;stroke-dashoffset:0;stroke-opacity:1;paint-order:stroke markers fill;color-rendering:auto;image-rendering:auto;shape-rendering:auto;text-rendering:auto;enable-background:accumulate"
         d="M 289.13086 112.08984 C 288.85942 112.08184 288.58397 112.08486 288.30664 112.10156 C 287.21089 112.15966 286.14817 112.44991 285.11523 112.9707 C 284.08229 113.49149 283.20995 114.17798 282.49805 115.03125 C 281.79975 115.87766 281.27738 116.80585 280.93359 117.81445 C 280.59664 118.83664 280.4575 119.89447 280.51562 120.99023 C 280.58062 122.09957 280.87374 123.17213 281.39453 124.20508 C 281.91532 125.238 282.59889 126.1025 283.44531 126.80078 C 284.29857 127.51269 285.23271 128.03017 286.24805 128.35352 C 287.27024 128.69053 288.33003 128.82969 289.42578 128.77148 C 290.53512 128.70648 291.60573 128.41532 292.63867 127.89453 C 293.67161 127.37373 294.53608 126.69016 295.23438 125.84375 C 295.94626 124.99048 296.47165 124.05149 296.80859 123.0293 C 297.15239 122.0207 297.29154 120.96286 297.22656 119.85352 C 297.16846 118.75776 296.88016 117.69311 296.35938 116.66016 C 295.83859 115.62724 295.15014 114.75488 294.29688 114.04297 C 293.45047 113.34466 292.51633 112.82716 291.49414 112.49023 C 290.73263 112.2477 289.94525 112.11391 289.13086 112.08984 z M 288.77148 115.53125 C 289.41804 115.49345 290.03798 115.5757 290.63086 115.77148 C 291.2373 115.96008 291.79076 116.26027 292.28906 116.67383 C 292.78736 117.08742 293.18969 117.59933 293.49805 118.21094 L 293.49805 118.21289 C 293.79958 118.81089 293.96967 119.43156 294.00586 120.07812 C 294.04214 120.72465 293.95506 121.34948 293.74609 121.94922 C 293.55753 122.55568 293.25731 123.10718 292.84375 123.60547 C 292.43018 124.10376 291.9163 124.50608 291.30469 124.81445 C 290.69308 125.12286 290.06453 125.29575 289.41797 125.33203 C 288.77142 125.36983 288.14066 125.28581 287.52734 125.08398 C 286.93447 124.88858 286.38893 124.58348 285.89062 124.16992 C 285.39232 123.75637 284.99292 123.25038 284.69141 122.65234 C 284.38307 122.04074 284.21004 121.41215 284.17383 120.76562 C 284.13754 120.11906 284.21862 119.49911 284.41406 118.90625 C 284.62307 118.30651 284.93409 117.75806 285.34766 117.25977 C 285.76123 116.76147 286.27315 116.3572 286.88477 116.04883 C 287.49637 115.74042 288.12494 115.56753 288.77148 115.53125 z "
         transform="matrix(0.26458333,0,0,0.26458333,-16.720705,220.26764)"
         id="path5715" />
      <path
         style="color:#000000;font-style:normal;font-variant:normal;font-weight:normal;font-stretch:normal;font-size:medium;line-height:normal;font-family:sans-serif;font-variant-ligatures:normal;font-variant-position:normal;font-variant-caps:normal;font-variant-numeric:normal;font-variant-alternates:normal;font-feature-settings:normal;text-indent:0;text-align:start;text-decoration:none;text-decoration-line:none;text-decoration-style:solid;text-decoration-color:#000000;letter-spacing:normal;word-spacing:normal;text-transform:none;writing-mode:lr-tb;direction:ltr;text-orientation:mixed;dominant-baseline:auto;baseline-shift:baseline;text-anchor:start;white-space:normal;shape-padding:0;clip-rule:nonzero;display:inline;overflow:visible;visibility:visible;opacity:0.3;isolation:auto;mix-blend-mode:normal;color-interpolation:sRGB;color-interpolation-filters:linearRGB;solid-color:#000000;solid-opacity:1;vector-effect:none;fill:#162d50;fill-opacity:0.90588235;fill-rule:nonzero;stroke:none;stroke-width:7.55905533;stroke-linecap:round;stroke-linejoin:round;stroke-miterlimit:4;stroke-dasharray:none;stroke-dashoffset:0;stroke-opacity:1;paint-order:stroke markers fill;color-rendering:auto;image-rendering:auto;shape-rendering:auto;text-rendering:auto;enable-background:accumulate"
         d="m 250.86719,115.7697 c -16.88689,0.0801 -45.12451,6.48115 -80.6543,17.98633 2.29678,2.56588 4.4971,5.21078 6.62305,7.91016 a 37.413182,207.57948 64.773377 0 1 39.53515,3.93164 37.413182,207.57948 64.773377 0 1 -17.28515,28.78125 c 2.27962,3.60487 4.54589,7.17563 6.82812,10.66406 l 1.13477,-0.32813 a 2.5224995,2.5225625 0 0 1 1.14844,-0.0566 c 41.28136,-29.20157 64.28164,-53.05546 59.48632,-63.23437 -1.82638,-3.8767 -7.6481,-5.69788 -16.8164,-5.6543 z"
         transform="matrix(0.26458333,0,0,0.26458333,-16.508057,220.49149)"
         id="path5711" />
      <path
         style="color:#000000;font-style:normal;font-variant:normal;font-weight:normal;font-stretch:normal;font-size:medium;line-height:normal;font-family:sans-serif;font-variant-ligatures:normal;font-variant-position:normal;font-variant-caps:normal;font-variant-numeric:normal;font-variant-alternates:normal;font-feature-settings:normal;text-indent:0;text-align:start;text-decoration:none;text-decoration-line:none;text-decoration-style:solid;text-decoration-color:#000000;letter-spacing:normal;word-spacing:normal;text-transform:none;writing-mode:lr-tb;direction:ltr;text-orientation:mixed;dominant-baseline:auto;baseline-shift:baseline;text-anchor:start;white-space:normal;shape-padding:0;clip-rule:nonzero;display:inline;overflow:visible;visibility:visible;opacity:0.3;isolation:auto;mix-blend-mode:normal;color-interpolation:sRGB;color-interpolation-filters:linearRGB;solid-color:#000000;solid-opacity:1;vector-effect:none;fill:#162d50;fill-opacity:0.90588235;fill-rule:nonzero;stroke:none;stroke-width:7.55905533;stroke-linecap:round;stroke-linejoin:round;stroke-miterlimit:4;stroke-dasharray:none;stroke-dashoffset:0;stroke-opacity:1;paint-order:stroke markers fill;color-rendering:auto;image-rendering:auto;shape-rendering:auto;text-rendering:auto;enable-background:accumulate"
         d="M 68.84375 129.85156 L 51.048828 129.88867 L 49.675781 133.76172 L 63.470703 145.00195 L 64.738281 141.42969 L 62.703125 139.78711 L 64.962891 133.41797 L 67.576172 133.42578 L 68.84375 129.85156 z M 61.300781 133.42969 L 59.867188 137.47461 L 54.925781 133.44336 L 61.300781 133.42969 z "
         transform="matrix(0.26458333,0,0,0.26458333,-16.720705,220.26764)"
         id="path5701" />
      <path
         style="color:#000000;font-style:normal;font-variant:normal;font-weight:normal;font-stretch:normal;font-size:medium;line-height:normal;font-family:sans-serif;font-variant-ligatures:normal;font-variant-position:normal;font-variant-caps:normal;font-variant-numeric:normal;font-variant-alternates:normal;font-feature-settings:normal;text-indent:0;text-align:start;text-decoration:none;text-decoration-line:none;text-decoration-style:solid;text-decoration-color:#000000;letter-spacing:normal;word-spacing:normal;text-transform:none;writing-mode:lr-tb;direction:ltr;text-orientation:mixed;dominant-baseline:auto;baseline-shift:baseline;text-anchor:start;white-space:normal;shape-padding:0;clip-rule:nonzero;display:inline;overflow:visible;visibility:visible;opacity:0.3;isolation:auto;mix-blend-mode:normal;color-interpolation:sRGB;color-interpolation-filters:linearRGB;solid-color:#000000;solid-opacity:1;vector-effect:none;fill:#162d50;fill-opacity:0.90588235;fill-rule:nonzero;stroke:none;stroke-width:7.55905533;stroke-linecap:round;stroke-linejoin:round;stroke-miterlimit:4;stroke-dasharray:none;stroke-dashoffset:0;stroke-opacity:1;paint-order:stroke markers fill;color-rendering:auto;image-rendering:auto;shape-rendering:auto;text-rendering:auto;enable-background:accumulate"
         d="M 297.26367 133.125 C 296.44341 133.1071 295.61763 133.2204 294.78516 133.46484 C 293.67521 133.79071 292.69206 134.30872 291.83789 135.01953 C 290.99832 135.72605 290.31897 136.54459 289.79883 137.47461 C 289.28298 138.41921 288.955 139.43519 288.81445 140.52344 C 288.67819 141.62631 288.77375 142.7338 289.09961 143.84375 C 289.42545 144.95372 289.94192 145.92802 290.64844 146.76758 C 291.35925 147.62173 292.18467 148.29954 293.125 148.80078 C 294.06961 149.31658 295.08558 149.64456 296.17383 149.78516 C 297.27669 149.9213 298.38224 149.82785 299.49219 149.50195 C 300.60215 149.17608 301.57841 148.65964 302.41797 147.95312 C 303.27215 147.24233 303.95681 146.41335 304.47266 145.46875 C 304.9928 144.53873 305.32076 143.52278 305.45703 142.41992 C 305.59759 141.33167 305.50554 140.233 305.17969 139.12305 C 304.85383 138.01311 304.33386 137.02995 303.62305 136.17578 C 302.91653 135.33619 302.0911 134.65841 301.14648 134.14258 C 300.20615 133.64138 299.18488 133.32381 298.08203 133.1875 C 297.80996 133.1524 297.53709 133.131 297.26367 133.125 z M 297.22266 136.57031 C 297.3842 136.57331 297.54447 136.58517 297.70508 136.60547 C 298.34756 136.68657 298.94432 136.87659 299.49219 137.17578 C 300.05468 137.47068 300.54348 137.86657 300.95898 138.36328 C 301.37449 138.85996 301.67816 139.43654 301.87109 140.09375 C 302.05974 140.73634 302.11426 141.37899 302.0332 142.02148 C 301.9521 142.66395 301.75325 143.26229 301.43945 143.81445 C 301.14454 144.37692 300.74864 144.86575 300.25195 145.28125 C 299.75526 145.69669 299.17869 146.00035 298.52148 146.19336 C 297.86427 146.38636 297.21474 146.44247 296.57227 146.36133 C 295.9298 146.28033 295.32458 146.08488 294.75781 145.77539 C 294.20993 145.47617 293.72799 145.07871 293.3125 144.58203 C 292.89699 144.08532 292.59489 143.51565 292.40625 142.87305 C 292.21331 142.21584 292.15722 141.5663 292.23828 140.92383 C 292.31938 140.28139 292.51136 139.6846 292.81055 139.13672 C 293.12435 138.58455 293.52869 138.10105 294.02539 137.68555 C 294.52208 137.27011 295.09867 136.96645 295.75586 136.77344 C 296.24877 136.62869 296.73804 136.56086 297.22266 136.57031 z "
         transform="matrix(0.26458333,0,0,0.26458333,-16.720705,220.26764)"
         id="path5699" />
      <path
         style="color:#000000;font-style:normal;font-variant:normal;font-weight:normal;font-stretch:normal;font-size:medium;line-height:normal;font-family:sans-serif;font-variant-ligatures:normal;font-variant-position:normal;font-variant-caps:normal;font-variant-numeric:normal;font-variant-alternates:normal;font-feature-settings:normal;text-indent:0;text-align:start;text-decoration:none;text-decoration-line:none;text-decoration-style:solid;text-decoration-color:#000000;letter-spacing:normal;word-spacing:normal;text-transform:none;writing-mode:lr-tb;direction:ltr;text-orientation:mixed;dominant-baseline:auto;baseline-shift:baseline;text-anchor:start;white-space:normal;shape-padding:0;clip-rule:nonzero;display:inline;overflow:visible;visibility:visible;opacity:0.3;isolation:auto;mix-blend-mode:normal;color-interpolation:sRGB;color-interpolation-filters:linearRGB;solid-color:#000000;solid-opacity:1;vector-effect:none;fill:#162d50;fill-opacity:0.90588235;fill-rule:nonzero;stroke:none;stroke-width:7.55905533;stroke-linecap:round;stroke-linejoin:round;stroke-miterlimit:4;stroke-dasharray:none;stroke-dashoffset:0;stroke-opacity:1;paint-order:stroke markers fill;color-rendering:auto;image-rendering:auto;shape-rendering:auto;text-rendering:auto;enable-background:accumulate"
         d="m 130.85352,134.88493 c -0.47547,0.17461 -0.94731,0.34603 -1.42383,0.52148 0.32239,0.31937 0.63849,0.64249 0.95703,0.96484 0.15269,-0.50298 0.31021,-0.99071 0.4668,-1.48632 z"
         transform="matrix(0.26458333,0,0,0.26458333,-16.508057,220.49149)"
         id="path5695" />
      <path
         style="color:#000000;font-style:normal;font-variant:normal;font-weight:normal;font-stretch:normal;font-size:medium;line-height:normal;font-family:sans-serif;font-variant-ligatures:normal;font-variant-position:normal;font-variant-caps:normal;font-variant-numeric:normal;font-variant-alternates:normal;font-feature-settings:normal;text-indent:0;text-align:start;text-decoration:none;text-decoration-line:none;text-decoration-style:solid;text-decoration-color:#000000;letter-spacing:normal;word-spacing:normal;text-transform:none;writing-mode:lr-tb;direction:ltr;text-orientation:mixed;dominant-baseline:auto;baseline-shift:baseline;text-anchor:start;white-space:normal;shape-padding:0;clip-rule:nonzero;display:inline;overflow:visible;visibility:visible;opacity:0.3;isolation:auto;mix-blend-mode:normal;color-interpolation:sRGB;color-interpolation-filters:linearRGB;solid-color:#000000;solid-opacity:1;vector-effect:none;fill:#162d50;fill-opacity:0.90588235;fill-rule:nonzero;stroke:none;stroke-width:7.55905533;stroke-linecap:round;stroke-linejoin:round;stroke-miterlimit:4;stroke-dasharray:none;stroke-dashoffset:0;stroke-opacity:1;paint-order:stroke markers fill;color-rendering:auto;image-rendering:auto;shape-rendering:auto;text-rendering:auto;enable-background:accumulate"
         d="m 45.65625,143.17994 -0.685547,3.6582 7.353516,4.76758 -8.580078,1.78515 -0.691407,3.70313 12.22461,-3.14844 5.162109,0.9668 0.642578,-3.43359 -5.207031,-0.97461 z"
         transform="matrix(0.26458333,0,0,0.26458333,-16.508057,220.49149)"
         id="path5687" />
      <path
         style="color:#000000;font-style:normal;font-variant:normal;font-weight:normal;font-stretch:normal;font-size:medium;line-height:normal;font-family:sans-serif;font-variant-ligatures:normal;font-variant-position:normal;font-variant-caps:normal;font-variant-numeric:normal;font-variant-alternates:normal;font-feature-settings:normal;text-indent:0;text-align:start;text-decoration:none;text-decoration-line:none;text-decoration-style:solid;text-decoration-color:#000000;letter-spacing:normal;word-spacing:normal;text-transform:none;writing-mode:lr-tb;direction:ltr;text-orientation:mixed;dominant-baseline:auto;baseline-shift:baseline;text-anchor:start;white-space:normal;shape-padding:0;clip-rule:nonzero;display:inline;overflow:visible;visibility:visible;opacity:0.3;isolation:auto;mix-blend-mode:normal;color-interpolation:sRGB;color-interpolation-filters:linearRGB;solid-color:#000000;solid-opacity:1;vector-effect:none;fill:#162d50;fill-opacity:0.90588235;fill-rule:nonzero;stroke:none;stroke-width:7.55905533;stroke-linecap:round;stroke-linejoin:round;stroke-miterlimit:4;stroke-dasharray:none;stroke-dashoffset:0;stroke-opacity:1;paint-order:stroke markers fill;color-rendering:auto;image-rendering:auto;shape-rendering:auto;text-rendering:auto;enable-background:accumulate"
         d="m 308.25391,154.72681 -16.69336,1.71485 0.36328,3.54297 10.81055,-1.11133 -10.07227,8.28906 0.40039,3.90625 16.66992,-1.71289 -0.36328,-3.54297 -10.78906,1.10742 10.07422,-8.28711 z"
         transform="matrix(0.26458333,0,0,0.26458333,-16.508057,220.49149)"
         id="path5685" />
      <path
         style="color:#000000;font-style:normal;font-variant:normal;font-weight:normal;font-stretch:normal;font-size:medium;line-height:normal;font-family:sans-serif;font-variant-ligatures:normal;font-variant-position:normal;font-variant-caps:normal;font-variant-numeric:normal;font-variant-alternates:normal;font-feature-settings:normal;text-indent:0;text-align:start;text-decoration:none;text-decoration-line:none;text-decoration-style:solid;text-decoration-color:#000000;letter-spacing:normal;word-spacing:normal;text-transform:none;writing-mode:lr-tb;direction:ltr;text-orientation:mixed;dominant-baseline:auto;baseline-shift:baseline;text-anchor:start;white-space:normal;shape-padding:0;clip-rule:nonzero;display:inline;overflow:visible;visibility:visible;opacity:0.3;isolation:auto;mix-blend-mode:normal;color-interpolation:sRGB;color-interpolation-filters:linearRGB;solid-color:#000000;solid-opacity:1;vector-effect:none;fill:#162d50;fill-opacity:0.90588235;fill-rule:nonzero;stroke:none;stroke-width:7.55905533;stroke-linecap:round;stroke-linejoin:round;stroke-miterlimit:4;stroke-dasharray:none;stroke-dashoffset:0;stroke-opacity:1;paint-order:stroke markers fill;color-rendering:auto;image-rendering:auto;shape-rendering:auto;text-rendering:auto;enable-background:accumulate"
         d="m 160.81641,196.31854 c -2.00497,0.45192 -3.32832,1.18997 -3.66016,1.85547 -0.22186,0.44402 -0.17823,1.26916 0.20313,2.3789 0.74682,-0.99503 1.34714,-2.26974 2.10546,-3.03906 0.48616,-0.49308 0.90486,-0.80957 1.35157,-1.19531 z"
         transform="matrix(0.26458333,0,0,0.26458333,-16.508057,220.49149)"
         id="path5663" />
      <path
         style="color:#000000;font-style:normal;font-variant:normal;font-weight:normal;font-stretch:normal;font-size:medium;line-height:normal;font-family:sans-serif;font-variant-ligatures:normal;font-variant-position:normal;font-variant-caps:normal;font-variant-numeric:normal;font-variant-alternates:normal;font-feature-settings:normal;text-indent:0;text-align:start;text-decoration:none;text-decoration-line:none;text-decoration-style:solid;text-decoration-color:#000000;letter-spacing:normal;word-spacing:normal;text-transform:none;writing-mode:lr-tb;direction:ltr;text-orientation:mixed;dominant-baseline:auto;baseline-shift:baseline;text-anchor:start;white-space:normal;shape-padding:0;clip-rule:nonzero;display:inline;overflow:visible;visibility:visible;opacity:0.3;isolation:auto;mix-blend-mode:normal;color-interpolation:sRGB;color-interpolation-filters:linearRGB;solid-color:#000000;solid-opacity:1;vector-effect:none;fill:#162d50;fill-opacity:0.90588235;fill-rule:nonzero;stroke:none;stroke-width:7.55905533;stroke-linecap:round;stroke-linejoin:round;stroke-miterlimit:4;stroke-dasharray:none;stroke-dashoffset:0;stroke-opacity:1;paint-order:stroke markers fill;color-rendering:auto;image-rendering:auto;shape-rendering:auto;text-rendering:auto;enable-background:accumulate"
         d="m 190.79883,196.56268 -4.66016,1.36719 c 0.67298,0.13606 1.30954,0.26355 1.97852,0.39843 0.8979,-0.58989 1.79628,-1.17877 2.68164,-1.76562 z"
         transform="matrix(0.26458333,0,0,0.26458333,-16.508057,220.49149)"
         id="path5661" />
    </g>
  </g>
</svg>
