<?xml version="1.0" encoding="UTF-8" standalone="no"?>
<!-- Created with Inkscape (http://www.inkscape.org/) -->

<svg
   xmlns:dc="http://purl.org/dc/elements/1.1/"
   xmlns:cc="http://creativecommons.org/ns#"
   xmlns:rdf="http://www.w3.org/1999/02/22-rdf-syntax-ns#"
   xmlns:svg="http://www.w3.org/2000/svg"
   xmlns="http://www.w3.org/2000/svg"
   xmlns:sodipodi="http://sodipodi.sourceforge.net/DTD/sodipodi-0.dtd"
   xmlns:inkscape="http://www.inkscape.org/namespaces/inkscape"
   width="93.468712mm"
   height="93.455109mm"
   viewBox="0 0 93.468712 93.455109"
   version="1.1"
   id="svg89031"
   sodipodi:docname="stamp2.svg.2017_10_09_11_47_00.0.svg"
   inkscape:version="0.92.0 r15299"
   inkscape:export-filename="D:\Jacob\Websites\shepherd-moon\themes\purehugo\static\imgs\stamp-logo.png"
   inkscape:export-xdpi="1000"
   inkscape:export-ydpi="1000">
  <defs
     id="defs89025">
    <inkscape:path-effect
       effect="bounding_box"
       id="path-effect4509"
       is_visible="true"
       linkedpath=""
       visualbounds="false" />
    <path
       sodipodi:nodetypes="csc"
       inkscape:connector-curvature="0"
       id="path6587"
       d="M -1,267 C -1,249.87917 12.879171,236 29.999995,236 47.120825,236 61,249.87917 61,267"
       style="opacity:1;fill:#e6e6e6;fill-opacity:0.90588235;stroke:none;stroke-width:1.50000012;stroke-linecap:round;stroke-linejoin:round;stroke-miterlimit:4;stroke-dasharray:none;stroke-opacity:0.90588235;paint-order:stroke markers fill" />
  </defs>
  <sodipodi:namedview
     id="base"
     pagecolor="#ffffff"
     bordercolor="#666666"
     borderopacity="1.0"
     inkscape:pageopacity="0.0"
     inkscape:pageshadow="2"
     inkscape:zoom="2.56"
     inkscape:cx="78.821377"
     inkscape:cy="-46.97974"
     inkscape:document-units="mm"
     inkscape:current-layer="layer1"
     showgrid="false"
     inkscape:window-width="1920"
     inkscape:window-height="1017"
     inkscape:window-x="1912"
     inkscape:window-y="-8"
     inkscape:window-maximized="1"
     fit-margin-top="0"
     fit-margin-left="0"
     fit-margin-right="0"
     fit-margin-bottom="0"
     showguides="true"
     inkscape:lockguides="true" />
  <metadata
     id="metadata89028">
    <rdf:RDF>
      <cc:Work
         rdf:about="">
        <dc:format>image/svg+xml</dc:format>
        <dc:type
           rdf:resource="http://purl.org/dc/dcmitype/StillImage" />
        <dc:title />
      </cc:Work>
    </rdf:RDF>
  </metadata>
  <g
     inkscape:label="Layer 1"
     inkscape:groupmode="layer"
     id="layer1"
     transform="translate(60.341033,-72.61883)">
    <path
       style="opacity:1;fill:#1c1c24;fill-opacity:1;stroke:none;stroke-width:7.55905485;paint-order:stroke fill markers"
       d="m -48,305.2168 v 76.72656 c 10.09581,16.89422 28.319059,27.24861 48,27.27344 14.872203,-0.0151 28.8247,-5.91985 39.097656,-15.96485 0.01172,-0.0113 0.02344,-0.0238 0.03516,-0.0352 0.149443,-0.14627 0.297454,-0.29344 0.445313,-0.44141 15.501731,-15.42933 37.032089,-15.55519 58.595703,-15.55664 l 53895.206168,0 v -72 z"
       transform="matrix(0.26458333,0,0,0.26458333,-60.341033,72.61883)"
       id="rect8120-8"
       inkscape:connector-curvature="0"
       sodipodi:nodetypes="cccccccccc" />
    <path
       inkscape:export-ydpi="1000"
       inkscape:export-xdpi="1000"
       inkscape:export-filename="D:\Jacob\Websites\shepherd-moon\themes\purehugo\static\imgs\text-logo.png"
       sodipodi:nodetypes="sssssccccccccccccccccccccccccccccsccsccccccccccccccccccccccccccsccccccccccccccccccccccccccccccccccccccccccccccccccccccccccc"
       inkscape:connector-curvature="0"
       id="path6211"
       d="m -60.340963,155.4907 c -5.842532,0 -10.583403,4.74072 -10.583403,10.58326 0,5.84254 4.740871,10.58341 10.583403,10.58341 5.842543,0 10.583274,-4.74087 10.583264,-10.58341 0,-5.84254 -4.740721,-10.58326 -10.583264,-10.58326 z m 7.062903,3.27109 c 0.3427,0.33106 0.6623,0.68585 0.955801,1.06201 -1.810601,0.026 -4.880043,0.75455 -8.731824,2.04342 -0.2292,-0.24657 -0.4682,-0.48515 -0.7189,-0.71313 3.225101,-1.09015 6.110282,-1.89609 8.494923,-2.3923 z m -10.463234,0.70019 0.2743,0.71631 c 2.739461,1.64286 4.228591,4.54485 5.876682,7.03929 l 0.2802,-0.0806 0.073,0.15184 -2.696261,0.79143 c 0.023,0.0212 0.047,0.0432 0.069,0.0638 0.1275,0.0706 0.2474,0.14984 0.3569,0.23747 0.467001,0.0942 0.930301,0.18943 1.301501,0.2559 0.1051,0.0192 0.0083,0.21653 -0.013,0.2464 0,0 -0.1335,0.23345 -0.6337,0.39435 -1.485271,0.3375 -1.842161,0.55248 -2.629051,0.36729 -0.1942,-0.0457 -0.7115,-0.60182 -0.6659,-0.74322 -4.498492,-2.28449 -2.180001,-6.77677 -1.518101,-8.70218 l -0.2418,-0.69731 z m 3.877441,8.68203 c -0.034,-0.0187 -0.069,-0.036 -0.1035,-0.0535 l -0.4115,0.12075 c 0.2412,0.0443 0.4925,0.0942 0.7475,0.14537 -0.074,-0.067 -0.1503,-0.13759 -0.2326,-0.21258 z m -8.550492,-8.24911 c 1.36517,0.6865 2.60039,1.60546 3.650331,2.71569 -0.1566,0.56603 -0.2796,1.17216 -0.3172,1.79113 -0.098,1.61769 0.4485,3.33241 2.46713,4.51084 -1.86147,1.22412 -3.801161,2.33128 -5.777661,3.36997 -1.325771,-1.71705 -2.114811,-3.87008 -2.114811,-6.20857 0,-2.32517 0.7801,-4.46689 2.092211,-6.17906 z m 15.209825,0.4476 c 0.872901,-0.004 1.427131,0.16919 1.601011,0.53827 0.4565,0.96908 -1.733211,3.24005 -5.663393,6.02018 -0.036,-0.007 -0.074,-0.005 -0.1094,0.005 l -0.1081,0.0312 c -0.2173,-0.33212 -0.4329,-0.67218 -0.65,-1.01538 1.33854,-1.22785 1.90603,-2.17274 1.64562,-2.74001 -0.3069,-0.61886 -1.61466,-0.74892 -3.764031,-0.37435 -0.2024,-0.25699 -0.4119,-0.50887 -0.6305,-0.75315 3.382611,-1.09535 6.071033,-1.70463 7.678743,-1.71226 z m -10.165594,0.0895 2.610191,6.82212 c 0.018,0.0197 0.035,0.0387 0.053,0.058 -0.2302,-2.37406 -1.06487,-4.65497 -2.663161,-6.88011 z m -0.2114,0.009 c 0.3615,2.73238 1.163611,4.53061 2.001251,5.76644 z m 12.520755,1.47622 c 0.3499,0.78062 0.6038,1.61368 0.7477,2.48398 -3.469681,2.94831 -8.958644,6.60991 -15.633256,10.15465 -0.5605,-0.37099 -1.08211,-0.79581 -1.55725,-1.26753 2.170331,-1.13668 4.201441,-2.27907 6.047232,-3.39213 0.3852,0.0802 0.7059,0.0683 1.07367,-0.003 0.3929,-0.0766 0.8478,-0.21389 1.583731,-0.38111 0.0069,-0.001 0.014,-0.003 0.021,-0.005 0.2764,-0.0889 0.4631,-0.20236 0.583,-0.30051 0.1168,-0.0956 0.1772,-0.19321 0.1805,-0.19847 0.018,-0.0268 0.029,-0.0461 0.041,-0.0733 0.015,-0.0331 0.03,-0.0719 0.042,-0.12003 0.012,-0.0482 0.026,-0.10498 0.0049,-0.19228 -0.022,-0.0873 -0.1315,-0.20246 -0.2357,-0.2215 h -4.5e-4 c -0.2027,-0.0363 -0.4412,-0.0833 -0.6897,-0.13298 0.238,-0.1546 0.4727,-0.30817 0.7022,-0.4607 l 0.9808,-0.28814 c 0.1421,-0.0417 0.213,-0.20079 0.149,-0.33433 l -0.052,-0.10794 c 2.967462,-2.05109 5.075863,-3.86311 6.011543,-5.15922 z m -12.590565,1.14276 c -0.035,0.0129 -0.07,0.0255 -0.1051,0.0384 0.024,0.0235 0.047,0.0473 0.071,0.0711 0.011,-0.0371 0.023,-0.073 0.035,-0.10952 z m 5.944762,4.19047 c -0.6951,-0.003 -1.34083,0.0248 -2.485851,0.58692 0.034,0.033 0.069,0.0668 0.1028,0.0984 z m -3.772951,0.47897 c -0.7464,0.0127 -1.224661,0.36984 -0.652,1.13311 0.1793,-0.43589 0.6428,-0.815 0.7032,-0.80438 0.1429,0.01 0.3176,0.0315 0.5116,0.061 l -0.1255,-0.36168 c -0.1517,-0.0209 -0.2992,-0.0302 -0.4374,-0.0281 z m 1.1167,0.193 c -0.038,0.0196 -0.078,0.0416 -0.1174,0.0623 l 0.022,0.0568 0.235,-0.0675 c -0.018,-0.007 -0.035,-0.0138 -0.053,-0.0204 l -0.011,0.0304 c -0.0043,-5.3e-4 -0.0091,-0.002 -0.013,-0.003 l 0.0016,-0.0361 c -0.021,-0.008 -0.042,-0.015 -0.063,-0.0224 z m -1.41506,0.0881 c -0.043,0.0367 -0.082,0.0669 -0.1287,0.11384 -0.072,0.0732 -0.1291,0.19455 -0.2002,0.28929 -0.036,-0.10566 -0.041,-0.18412 -0.02,-0.2264 0.032,-0.0634 0.1575,-0.13371 0.3484,-0.17673 z m 2.854581,0.0233 c -0.084,0.0559 -0.1698,0.11194 -0.255301,0.1681 -0.064,-0.0128 -0.1243,-0.025 -0.1884,-0.038 z m -3.432431,1.04517 c 0.017,0.0425 0.038,0.0804 0.062,0.11845 0.057,0.0919 0.1308,0.18425 0.2121,0.2736 0.081,0.0893 0.1698,0.1745 0.2572,0.24524 0.038,0.0311 0.074,0.0599 0.112,0.0855 -1.801691,1.0954 -3.794501,2.22299 -5.930082,3.34536 -0.2004,-0.20682 -0.3923,-0.42184 -0.5747,-0.64506 2.16165,-1.15052 4.151641,-2.31265 5.861562,-3.42307 z m 1.13124,3.16214 c -0.072,1.31902 -0.3422,2.61969 -0.8014,3.8583 -1.317741,-0.2196 -2.549451,-0.69216 -3.643561,-1.36656 1.49928,-0.7991 2.98222,-1.62858 4.444931,-2.49174 z"
       style="color:#000000;font-style:normal;font-variant:normal;font-weight:normal;font-stretch:normal;font-size:medium;line-height:normal;font-family:sans-serif;font-variant-ligatures:normal;font-variant-position:normal;font-variant-caps:normal;font-variant-numeric:normal;font-variant-alternates:normal;font-feature-settings:normal;text-indent:0;text-align:start;text-decoration:none;text-decoration-line:none;text-decoration-style:solid;text-decoration-color:#000000;letter-spacing:normal;word-spacing:normal;text-transform:none;writing-mode:lr-tb;direction:ltr;text-orientation:mixed;dominant-baseline:auto;baseline-shift:baseline;text-anchor:start;white-space:normal;shape-padding:0;clip-rule:nonzero;display:inline;overflow:visible;visibility:visible;opacity:1;isolation:auto;mix-blend-mode:normal;color-interpolation:sRGB;color-interpolation-filters:linearRGB;solid-color:#000000;solid-opacity:1;vector-effect:none;fill:#ffffff;fill-opacity:1;fill-rule:nonzero;stroke-width:0.99999994;paint-order:stroke markers fill;color-rendering:auto;image-rendering:auto;shape-rendering:auto;text-rendering:auto;enable-background:accumulate" />
    <text
       inkscape:export-ydpi="1000"
       inkscape:export-xdpi="1000"
       inkscape:export-filename="D:\Jacob\Websites\shepherd-moon\themes\purehugo\static\imgs\text-logo.png"
       id="text7556"
       y="168.07841"
       x="-46.367077"
       style="font-style:normal;font-weight:normal;font-size:14.03625107px;line-height:8.77265644px;font-family:sans-serif;letter-spacing:0px;word-spacing:0px;fill:#ffffff;fill-opacity:1;stroke:none;stroke-width:1.99999988;paint-order:stroke fill markers"
       xml:space="preserve"><tspan
         style="font-style:normal;font-variant:normal;font-weight:normal;font-stretch:normal;font-family:Governor;-inkscape-font-specification:Governor;fill:#ffffff;stroke:none;stroke-width:1.99999988;paint-order:stroke fill markers"
         y="168.07841"
         x="-46.367077"
         id="tspan7554"
         sodipodi:role="line">Shepherd Moon</tspan></text>
    <text
       xml:space="preserve"
       style="font-style:normal;font-weight:normal;font-size:5.64444447px;line-height:6.61458302px;font-family:sans-serif;letter-spacing:0px;word-spacing:0px;fill:#ffffff;fill-opacity:1;stroke:none;stroke-width:0.26458332"
       x="102.18871"
       y="165.16074"
       id="text4512"><tspan
         sodipodi:role="line"
         id="tspan4510"
         x="102.18871"
         y="165.16074"
         style="font-style:normal;font-variant:normal;font-weight:normal;font-stretch:normal;font-family:'Quaver Sans';-inkscape-font-specification:'Quaver Sans';fill:#ffffff;stroke-width:0.26458332">About Gallery</tspan></text>
  </g>
</svg>
