<?xml version="1.0" encoding="UTF-8" standalone="no"?>
<!-- Created with Inkscape (http://www.inkscape.org/) -->

<svg
   xmlns:dc="http://purl.org/dc/elements/1.1/"
   xmlns:cc="http://creativecommons.org/ns#"
   xmlns:rdf="http://www.w3.org/1999/02/22-rdf-syntax-ns#"
   xmlns:svg="http://www.w3.org/2000/svg"
   xmlns="http://www.w3.org/2000/svg"
   xmlns:sodipodi="http://sodipodi.sourceforge.net/DTD/sodipodi-0.dtd"
   xmlns:inkscape="http://www.inkscape.org/namespaces/inkscape"
   width="93.468712mm"
   height="93.455109mm"
   viewBox="0 0 93.468712 93.455109"
   version="1.1"
   id="svg89031"
   sodipodi:docname="stamp2.svg"
   inkscape:version="0.91 r13725"
   inkscape:export-filename="D:\Jacob\Websites\shepherd-moon\themes\purehugo\static\imgs\stamp-logo.png"
   inkscape:export-xdpi="1000"
   inkscape:export-ydpi="1000">
  <defs
     id="defs89025">
    <path
       sodipodi:nodetypes="csc"
       inkscape:connector-curvature="0"
       id="path6587"
       d="M -1,267 C -1,249.87917 12.879171,236 29.999995,236 47.120825,236 61,249.87917 61,267"
       style="opacity:1;fill:#e6e6e6;fill-opacity:0.90588235;stroke:none;stroke-width:1.50000012;stroke-linecap:round;stroke-linejoin:round;stroke-miterlimit:4;stroke-dasharray:none;stroke-opacity:0.90588235;paint-order:stroke markers fill" />
  </defs>
  <sodipodi:namedview
     id="base"
     pagecolor="#ffffff"
     bordercolor="#666666"
     borderopacity="1.0"
     inkscape:pageopacity="0.0"
     inkscape:pageshadow="2"
     inkscape:zoom="0.19345703"
     inkscape:cx="1054.4782"
     inkscape:cy="1374.4651"
     inkscape:document-units="mm"
     inkscape:current-layer="layer1"
     showgrid="false"
     inkscape:window-width="1366"
     inkscape:window-height="715"
     inkscape:window-x="-8"
     inkscape:window-y="-8"
     inkscape:window-maximized="1"
     fit-margin-top="0"
     fit-margin-left="0"
     fit-margin-right="0"
     fit-margin-bottom="0"
     showguides="false" />
  <metadata
     id="metadata89028">
    <rdf:RDF>
      <cc:Work
         rdf:about="">
        <dc:format>image/svg+xml</dc:format>
        <dc:type
           rdf:resource="http://purl.org/dc/dcmitype/StillImage" />
        <dc:title />
      </cc:Work>
    </rdf:RDF>
  </metadata>
  <g
     inkscape:label="Layer 1"
     inkscape:groupmode="layer"
     id="layer1"
     transform="translate(60.341033,-72.61883)">
    <rect
       y="44.885094"
       x="-88.067986"
       height="74.461502"
       width="811.60236"
       id="rect8120"
       style="opacity:1;fill:#1c1c24;fill-opacity:1;stroke:none;stroke-width:2;paint-order:stroke fill markers" />
    <rect
       y="95.912079"
       x="-41.19894"
       height="60.665524"
       width="764.73334"
       id="rect8120-8"
       style="opacity:1;fill:#1c1c24;fill-opacity:1;stroke:none;stroke-width:1.99999988;paint-order:stroke fill markers" />
    <circle
       r="74.461304"
       cy="119.3464"
       cx="-13.606677"
       id="path8118"
       style="opacity:1;fill:#1c1c24;fill-opacity:1;stroke:none;stroke-width:2;paint-order:stroke fill markers" />
    <path
       inkscape:export-ydpi="1000"
       inkscape:export-xdpi="1000"
       inkscape:export-filename="D:\Jacob\Websites\shepherd-moon\themes\purehugo\static\imgs\text-logo.png"
       sodipodi:nodetypes="sssssccccccccccccccccccccccccccccsccsccccccccccccccccccccccccccsccccccccccccccccccccccccccccccccccccccccccccccccccccccccccc"
       inkscape:connector-curvature="0"
       id="path6211"
       d="m -13.606271,59.80173 c -32.871676,0 -59.545053,26.67257 -59.545053,59.54425 0,32.87168 26.673377,59.54506 59.545053,59.54506 32.871675,0 59.544248,-26.67338 59.544242,-59.54506 0,-32.87168 -26.672567,-59.54425 -59.544242,-59.54425 z M 26.13146,78.20576 c 1.927994,1.86262 3.725977,3.85878 5.377557,5.97516 C 21.32207,84.32728 4.052605,88.42623 -17.618586,95.67776 -18.90789,94.29044 -20.253074,92.94817 -21.663293,91.66545 -3.517997,85.53199 12.714796,80.99758 26.13146,78.20576 Z m -58.868912,3.93943 1.543387,4.03015 c 15.412928,9.2432 23.791177,25.57054 33.063762,39.60493 l 1.576584,-0.45347 0.412161,0.85429 -15.169876,4.45281 c 0.129859,0.11921 0.262757,0.24312 0.389489,0.35873 0.717361,0.39742 1.39213,0.84304 2.008182,1.33608 2.627592,0.53028 5.234158,1.06575 7.32258,1.43974 0.591538,0.10777 0.04654,1.21826 -0.07449,1.3863 0,0 -0.750803,1.31345 -3.565335,2.21872 -8.356495,1.8989 -10.364438,3.10842 -14.791722,2.06649 -1.092503,-0.25708 -4.003167,-3.38598 -3.74672,-4.18156 -25.309752,-12.85316 -12.265309,-38.12794 -8.541256,-48.96079 l -1.360381,-3.92324 z m 21.815507,48.84744 c -0.190137,-0.10523 -0.386844,-0.20264 -0.582212,-0.30123 l -2.315078,0.67939 c 1.356729,0.24924 2.771092,0.52969 4.205848,0.81784 -0.415891,-0.37678 -0.845596,-0.7741 -1.308558,-1.196 z m -48.107319,-46.4117 c 7.680786,3.86245 14.630462,9.03272 20.537718,15.27919 -0.881121,3.18464 -1.573407,6.59487 -1.784689,10.07736 -0.552182,9.10158 2.52329,18.74905 13.880756,25.37921 -10.473115,6.8872 -21.386335,13.11639 -32.506653,18.96034 -7.459164,-9.66058 -11.898484,-21.7741 -11.898484,-34.93105 0,-13.08206 4.388898,-25.1319 11.771352,-34.76505 z m 85.574504,2.51833 c 4.910974,-0.0233 8.029383,0.9519 9.007676,3.02846 2.568599,5.45229 -9.751467,18.22936 -31.86371,33.87109 -0.204772,-0.0373 -0.415384,-0.0268 -0.615413,0.0306 l -0.608121,0.17577 c -1.222471,-1.86859 -2.435769,-3.78184 -3.656837,-5.7128 7.530993,-6.90821 10.723843,-12.22441 9.258697,-15.41604 -1.726782,-3.48182 -9.084496,-4.21359 -21.177425,-2.10618 -1.13876,-1.44591 -2.317255,-2.86304 -3.547518,-4.23743 19.031431,-6.1627 34.15724,-9.59069 43.202651,-9.6336 z m -57.194342,0.50366 14.685645,38.38303 c 0.100014,0.11101 0.198386,0.2176 0.297988,0.32631 -1.295371,-13.35713 -5.991242,-26.1901 -14.983633,-38.70934 z m -1.189526,0.0534 c 2.034095,15.37307 6.546799,25.49041 11.259589,32.4435 z m 70.445115,8.30562 c 1.968655,4.39195 3.397039,9.07901 4.206659,13.97549 -19.521305,16.58803 -50.403653,37.18917 -87.956797,57.13281 -3.153398,-2.08731 -6.088246,-4.47748 -8.761507,-7.13148 12.21086,-6.39529 23.6384,-12.82263 34.023315,-19.08502 2.167164,0.45095 3.971756,0.38443 6.040742,-0.0187 2.210505,-0.43082 4.769888,-1.20336 8.910504,-2.14421 0.03901,-0.008 0.07764,-0.0177 0.115804,-0.0291 1.555237,-0.50023 2.605718,-1.13858 3.280302,-1.69077 0.657031,-0.53781 0.997215,-1.08706 1.015429,-1.11664 0.09919,-0.15073 0.16114,-0.25929 0.230778,-0.41217 0.08496,-0.18637 0.17146,-0.40425 0.238876,-0.67532 0.06744,-0.27108 0.148784,-0.59068 0.02753,-1.08184 -0.121327,-0.49117 -0.73966,-1.1391 -1.326374,-1.24621 h -0.0025 c -1.140334,-0.20423 -2.482399,-0.46861 -3.88033,-0.7482 1.338965,-0.8698 2.659681,-1.73382 3.950777,-2.59201 l 5.518455,-1.62113 c 0.799609,-0.23445 1.1985,-1.12974 0.83809,-1.88105 L 4.783919,124.98907 C 21.479611,113.44911 33.342012,103.2542 38.606418,95.96193 Z m -70.837846,6.42943 c -0.197126,0.0725 -0.393555,0.14337 -0.591117,0.21618 0.133658,0.13235 0.264711,0.26639 0.396777,0.40003 0.0633,-0.20853 0.129421,-0.41075 0.19434,-0.61621 z m 33.446774,23.57671 c -3.910733,-0.0158 -7.54384,0.1394 -13.986021,3.30216 0.193603,0.18578 0.389472,0.37612 0.578163,0.55387 z m -21.227627,2.69485 c -4.19957,0.0716 -6.890251,2.08082 -3.668175,6.37517 1.008568,-2.45246 3.616612,-4.58543 3.956446,-4.5257 0.804028,0.0544 1.786757,0.17731 2.878664,0.34333 l -0.7061,-2.03489 c -0.853289,-0.11766 -1.68311,-0.17006 -2.460835,-0.15791 z m 6.282861,1.08587 c -0.214134,0.11031 -0.440475,0.23401 -0.660757,0.35063 l 0.122274,0.31985 1.322322,-0.37978 c -0.09934,-0.0397 -0.198783,-0.0775 -0.298797,-0.11497 l -0.06397,0.17086 c -0.02425,-0.003 -0.05097,-0.0127 -0.07531,-0.0171 l 0.0089,-0.20324 c -0.118036,-0.0432 -0.236036,-0.0845 -0.354668,-0.12628 z m -7.961475,0.49558 c -0.239279,0.20661 -0.463508,0.37639 -0.723918,0.6405 -0.406191,0.41206 -0.726331,1.09462 -1.126365,1.62761 -0.204272,-0.59443 -0.228954,-1.0359 -0.110127,-1.27374 0.17775,-0.35648 0.88645,-0.7523 1.960407,-0.99437 z m 16.060604,0.13107 c -0.47424,0.31435 -0.955541,0.62981 -1.436497,0.94579 -0.358337,-0.072 -0.699484,-0.14082 -1.059963,-0.21377 z m -19.311757,5.88042 c 0.09783,0.23921 0.215385,0.45216 0.348197,0.66642 0.320918,0.51732 0.735793,1.03667 1.193568,1.53935 0.457778,0.50275 0.955198,0.98178 1.44703,1.3798 0.216458,0.17518 0.414173,0.33707 0.629985,0.481 -10.136774,6.16299 -21.348849,12.50712 -33.364178,18.82185 -1.127491,-1.16357 -2.207241,-2.37336 -3.233337,-3.62926 12.162034,-6.4731 23.358288,-13.01155 32.978735,-19.25912 z m 6.364647,17.79105 c -0.405268,7.42116 -1.925193,14.73906 -4.508695,21.70781 -7.413985,-1.23552 -14.343908,-3.89425 -20.499663,-7.6886 8.43533,-4.49596 16.778754,-9.16284 25.008358,-14.01922 z"
       style="color:#000000;font-style:normal;font-variant:normal;font-weight:normal;font-stretch:normal;font-size:medium;line-height:normal;font-family:sans-serif;font-variant-ligatures:normal;font-variant-position:normal;font-variant-caps:normal;font-variant-numeric:normal;font-variant-alternates:normal;font-feature-settings:normal;text-indent:0;text-align:start;text-decoration:none;text-decoration-line:none;text-decoration-style:solid;text-decoration-color:#000000;letter-spacing:normal;word-spacing:normal;text-transform:none;writing-mode:lr-tb;direction:ltr;text-orientation:mixed;dominant-baseline:auto;baseline-shift:baseline;text-anchor:start;white-space:normal;shape-padding:0;clip-rule:nonzero;display:inline;overflow:visible;visibility:visible;opacity:1;isolation:auto;mix-blend-mode:normal;color-interpolation:sRGB;color-interpolation-filters:linearRGB;solid-color:#000000;solid-opacity:1;vector-effect:none;fill:#ffffff;fill-opacity:1;fill-rule:nonzero;stroke-width:0.26458335;paint-order:stroke markers fill;color-rendering:auto;image-rendering:auto;shape-rendering:auto;text-rendering:auto;enable-background:accumulate" />
    <text
       inkscape:export-ydpi="1000"
       inkscape:export-xdpi="1000"
       inkscape:export-filename="D:\Jacob\Websites\shepherd-moon\themes\purehugo\static\imgs\text-logo.png"
       id="text7556"
       y="118.46056"
       x="57.202633"
       style="font-style:normal;font-weight:normal;font-size:48.04664612px;line-height:30.02915192px;font-family:sans-serif;letter-spacing:0px;word-spacing:0px;fill:#ffffff;fill-opacity:1;stroke:none;stroke-width:2;paint-order:stroke fill markers"
       xml:space="preserve"><tspan
         style="font-style:normal;font-variant:normal;font-weight:normal;font-stretch:normal;font-family:Governor;-inkscape-font-specification:Governor;fill:#ffffff;stroke:none;stroke-width:2;paint-order:stroke fill markers"
         y="118.46056"
         x="57.202633"
         id="tspan7554"
         sodipodi:role="line">Shepherd Moon</tspan></text>
    <rect
       style="opacity:1;fill:#466083;fill-opacity:1;stroke:none;stroke-width:1;stroke-linecap:round;stroke-linejoin:miter;stroke-miterlimit:4;stroke-dasharray:none;stroke-opacity:1"
       id="rect4140"
       width="361.7915"
       height="361.79147"
       x="-267.49585"
       y="-372.23682"
       inkscape:export-xdpi="299.99106"
       inkscape:export-ydpi="299.99106" />
    <path
       inkscape:export-ydpi="299.99106"
       inkscape:export-xdpi="299.99106"
       inkscape:export-filename="D:\Jacob\Websites\shepherd-moon\themes\purehugo\static\imgs\text-logo.png"
       sodipodi:nodetypes="sssssccccccccccccccccccccccccccccsccsccccccccccccccccccccccccccsccccccccccccccccccccccccccccccccccccccccccccccccccccccccccc"
       inkscape:connector-curvature="0"
       id="path6211-1"
       d="m -86.599193,-325.2864 c -73.944627,0 -133.946197,59.99977 -133.946197,133.94441 0,73.94464 60.00157,133.946244 133.946197,133.946244 73.944627,0 133.944412,-60.001604 133.944398,-133.946244 0,-73.94464 -59.999771,-133.94441 -133.944398,-133.94441 z m 89.3897736,41.39974 c 4.3370123,4.18996 8.3815624,8.6803 12.0967834,13.44109 -22.915474,0.32924 -61.763025,9.5498 -110.512235,25.86207 -2.900282,-3.12076 -5.926269,-6.14019 -9.098539,-9.02567 40.817725,-13.79718 77.333294,-23.99731 107.5139906,-30.27749 z m -132.4252306,8.86173 3.47182,9.06579 c 34.671286,20.79253 53.518107,57.52077 74.376726,89.09104 l 3.546517,-1.02008 0.927158,1.92172 -34.124546,10.01657 c 0.292117,0.26817 0.591071,0.54691 0.876154,0.80697 1.613699,0.89399 3.131591,1.89641 4.517397,3.0055 5.910747,1.19286 11.774201,2.39741 16.472093,3.23869 1.330661,0.24243 0.104697,2.74046 -0.167565,3.11847 0,0 -1.688921,2.9546 -8.020194,4.991 -18.797888,4.27156 -23.314743,6.99238 -33.27389,4.64855 -2.45757,-0.57829 -9.00509,-7.61673 -8.42822,-9.40638 -56.93412,-28.91311 -27.59073,-85.76857 -19.21351,-110.137 l -3.06016,-8.82531 z m 49.073829,109.88201 c -0.427711,-0.23672 -0.870203,-0.45583 -1.309678,-0.67761 l -5.207758,1.52827 c 3.051953,0.56068 6.233553,1.19154 9.461028,1.83973 -0.935547,-0.84756 -1.902161,-1.74133 -2.943592,-2.69039 z M -188.77792,-269.54574 c 17.27787,8.68854 32.91113,20.31904 46.19946,34.37043 -1.98208,7.16383 -3.53938,14.83512 -4.01466,22.66896 -1.24211,20.47396 5.67613,42.17587 31.22468,57.09037 -23.55921,15.49271 -48.10842,29.50524 -73.12349,42.65118 -16.77936,-21.73143 -26.76558,-48.98071 -26.76558,-78.57719 0,-29.42801 9.8728,-56.53405 26.47959,-78.20375 z m 192.499296,5.66495 c 11.047208,-0.0524 18.062049,2.1413 20.262711,6.81251 5.778052,12.26489 -21.9358638,41.00683 -71.677216,76.1928 -0.460633,-0.0839 -0.934402,-0.0602 -1.384364,0.0688 l -1.367964,0.39539 c -2.74994,-4.20339 -5.47925,-8.50723 -8.226034,-12.85091 16.940922,-15.53998 24.12322,-27.49874 20.827379,-34.67829 -3.884382,-7.83233 -20.435513,-9.47845 -47.638483,-4.73783 -2.561636,-3.25258 -5.212648,-6.44039 -7.980117,-9.53208 42.81108,-13.86295 76.836497,-21.5742 97.184088,-21.67072 z m -128.658316,1.13298 33.035271,86.34239 c 0.224981,0.24972 0.446268,0.48949 0.670322,0.73403 -2.913931,-30.04677 -13.477263,-58.91446 -33.705593,-87.07642 z m -2.67583,0.1201 c 4.57568,34.58161 14.72698,57.34051 25.32838,72.98143 z m 158.465846,18.68344 c 4.428479,9.87966 7.641618,20.42316 9.462858,31.43777 -43.9130578,37.31466 -113.382704,83.6568 -197.858254,128.519895 -7.09356,-4.695393 -13.69548,-10.072066 -19.70896,-16.042215 27.46825,-14.38617 53.17443,-28.84443 76.53522,-42.93164 4.875027,1.01442 8.934444,0.86477 13.58862,-0.0421 4.972512,-0.96912 10.729829,-2.70694 20.044123,-4.82337 0.08776,-0.018 0.17465,-0.0398 0.260493,-0.0654 3.498503,-1.12526 5.861548,-2.56123 7.379023,-3.80337 1.477985,-1.20981 2.243229,-2.44534 2.284204,-2.51189 0.223127,-0.33905 0.362483,-0.58327 0.519136,-0.92716 0.191117,-0.41925 0.385693,-0.90936 0.537347,-1.51914 0.151707,-0.60979 0.334685,-1.32873 0.0619,-2.43359 -0.272926,-1.10488 -1.663859,-2.56239 -2.98367,-2.80333 l -0.0057,0 c -2.565179,-0.45942 -5.584148,-1.05415 -8.728779,-1.68308 3.01199,-1.95661 5.982932,-3.90021 8.887245,-5.83071 l 12.413731,-3.64672 c 1.798716,-0.52739 2.696016,-2.54134 1.885279,-4.23141 l -0.657574,-1.36616 c 37.5567602,-25.95909 64.241152,-48.89248 76.083403,-65.2964 z m -159.349286,14.46299 c -0.44344,0.16309 -0.88531,0.32251 -1.32972,0.48631 0.30068,0.29772 0.59546,0.59923 0.89256,0.89985 0.14239,-0.46909 0.29113,-0.92398 0.43716,-1.38616 z m 75.238306,53.03567 c -8.797165,-0.0356 -16.969823,0.31357 -31.461467,7.42819 0.435506,0.41791 0.876117,0.84607 1.300577,1.24592 z m -47.751416,6.06204 c -9.4469,0.16107 -15.49958,4.6808 -8.25154,14.34091 2.26877,-5.5168 8.13555,-10.3149 8.90001,-10.18054 1.808654,0.1224 4.019297,0.39886 6.475532,0.77232 l -1.588367,-4.57747 c -1.919466,-0.26467 -3.786143,-0.38254 -5.535635,-0.35522 z m 14.133259,2.44266 c -0.481693,0.24814 -0.990849,0.52641 -1.486367,0.78874 l 0.275052,0.7195 2.974553,-0.85431 c -0.223464,-0.0894 -0.447161,-0.17434 -0.672141,-0.25862 l -0.143901,0.38434 c -0.05452,-0.007 -0.114661,-0.0286 -0.16941,-0.0385 l 0.02002,-0.45718 c -0.265522,-0.0972 -0.530961,-0.19009 -0.797824,-0.28408 z m -17.909289,1.11481 c -0.53825,0.46476 -1.04266,0.84669 -1.62845,1.4408 -0.91372,0.92692 -1.63387,2.46233 -2.53375,3.66129 -0.45951,-1.33716 -0.51502,-2.33025 -0.24772,-2.86526 0.39984,-0.8019 1.99406,-1.69229 4.40991,-2.23683 z m 36.128229,0.29484 c -1.066802,0.70712 -2.149489,1.41675 -3.231391,2.12755 -0.80608,-0.16197 -1.573487,-0.31678 -2.384379,-0.48088 z m -43.441679,13.22797 c 0.22006,0.53809 0.48451,1.01713 0.78327,1.4991 0.7219,1.16371 1.65517,2.33199 2.68493,3.46276 1.02976,1.13094 2.14871,2.20851 3.25507,3.10385 0.48692,0.39407 0.93169,0.75824 1.41716,1.08201 -22.80262,13.86361 -48.02411,28.13469 -75.05251,42.33963 -2.53628,-2.61745 -4.96517,-5.33886 -7.27336,-8.16399 27.35842,-14.56121 52.54431,-29.26941 74.18544,-43.32328 z m 14.317238,40.02085 c -0.91165,16.693852 -4.330708,33.155427 -10.142278,48.831583 -16.67773,-2.779294 -32.26654,-8.76009 -46.11386,-17.295457 18.97522,-10.11363 37.74369,-20.611756 56.256138,-31.536146 z"
       style="color:#000000;font-style:normal;font-variant:normal;font-weight:normal;font-stretch:normal;font-size:medium;line-height:normal;font-family:sans-serif;text-indent:0;text-align:start;text-decoration:none;text-decoration-line:none;text-decoration-style:solid;text-decoration-color:#000000;letter-spacing:normal;word-spacing:normal;text-transform:none;direction:ltr;writing-mode:lr-tb;baseline-shift:baseline;text-anchor:start;white-space:normal;clip-rule:nonzero;display:inline;overflow:visible;visibility:visible;opacity:1;isolation:auto;mix-blend-mode:normal;color-interpolation:sRGB;color-interpolation-filters:linearRGB;solid-color:#000000;solid-opacity:1;fill:#ffffff;fill-opacity:1;fill-rule:nonzero;stroke-width:0.26458335;paint-order:stroke markers fill;color-rendering:auto;image-rendering:auto;shape-rendering:auto;text-rendering:auto;enable-background:accumulate" />
  </g>
</svg>
