<svg xmlns="http://www.w3.org/2000/svg" version="1.1" xmlns:xlink="http://www.w3.org/1999/xlink"
     width="200" height="170" >
  <path id="path4488" fill="#526682" d="M149.135 11.796c-2.43-.062-5.046.5-7.973 1.52-5.498 1.914-12.12 5.537-19.685 10.7-6.51-3.11-13.793-4.855-21.477-4.855-27.58 0-50 22.423-50 50 0 7.615 1.718 14.83 4.77 21.295-4.995 7.262-8.566 13.666-10.555 19.033-1.06 2.863-1.69 5.435-1.77 7.82-.078 2.386.438 4.73 1.98 6.506 1.597 1.844 4.012 2.652 6.44 2.713 2.43.062 5.046-.5 7.973-1.52 5.498-1.914 12.12-5.537 19.685-10.7 6.51 3.11 13.793 4.855 21.477 4.855 27.58 0 50-22.42 50-50 0-7.612-1.718-14.828-4.77-21.292 4.995-7.262 8.566-13.666 10.555-19.033 1.06-2.863 1.69-5.435 1.77-7.82.078-2.386-.438-4.73-1.98-6.506-1.597-1.844-4.012-2.652-6.44-2.713zm-.15 5.998c1.33.033 1.784.33 2.056.644.264.302.566.956.52 2.38-.047 1.422-.486 3.468-1.4 5.933-1.506 4.07-4.286 9.283-8.21 15.248-3.8-5.848-8.783-10.854-14.615-14.676 6.247-4.07 11.663-6.897 15.803-8.34 2.49-.866 4.518-1.22 5.847-1.186zM100 25.16c16.4 0 30.666 8.937 38.234 22.208-7.523 10.462-17.57 22.065-28.713 33.078-10.55 10.427-21.53 19.78-31.462 26.863C64.87 99.72 56 85.496 56 69.16c0-24.335 19.664-44 44-44zm41.154 28.4c1.834 4.85 2.846 10.104 2.846 15.6 0 24.337-19.664 44-44 44-5.56 0-10.87-1.036-15.762-2.91 9.51-7.03 19.687-15.837 29.5-25.536 10.417-10.296 19.914-21.09 27.416-31.153zM58.05 96.326c3.8 5.848 8.784 10.854 14.616 14.676-6.247 4.073-11.663 6.9-15.803 8.34-2.49.868-4.518 1.222-5.847 1.188-1.33-.034-1.785-.33-2.057-.644-.264-.302-.566-.956-.52-2.38.047-1.422.486-3.468 1.4-5.933 1.506-4.067 4.286-9.28 8.21-15.245z"/>
  <path d="M153.31 16.474a17.717 74.96 45.114 0 1-41.68 66.106 17.717 74.96 45.114 0 1-64.94 39.268 17.717 74.96 45.114 0 1 41.68-66.106 17.717 74.96 45.114 0 1 64.94-39.268z" fill="none" id="orbit"></path>
   <path id="path4713" fill="#526682" d="M10.207 133.05c-1.24 0-2.2.998-2.2 2.198v23.602c0 1.2.96 2.2 2.2 2.2h13.08c1.16 0 2.2-1 2.2-2.2 0-1.24-1.04-2.24-2.2-2.24h-10.84v-21.362c0-1.2-1-2.2-2.24-2.2zm85.195 0c-1.24 0-2.2 1-2.2 2.16v7.52c-1.48-1.04-3.4-1.68-5.36-1.68-5.4 0-9.72 4.558-9.72 10.038 0 5.4 4.32 9.96 9.72 9.96 2 0 3.92-.68 5.44-1.72.2.96 1.04 1.72 2.12 1.72 1.2 0 2.16-1 2.16-2.16v-23.68c0-1.16-.96-2.16-2.16-2.16zm12.647 0c-1.2 0-2.16.96-2.16 2.16v.84c0 1.2.96 2.198 2.16 2.198 1.24 0 2.16-1 2.16-2.2v-.84c0-1.2-.92-2.16-2.16-2.16zm-69.655 8c-2.76 0-5.08 1.158-6.88 3.038-1.72 1.92-2.76 4.28-2.76 7 0 2.8 1.04 5.28 2.76 7.04 1.8 1.88 4.12 3.04 6.88 3.04 2.64 0 5.04-1.16 6.68-3.04 1.8-1.76 2.8-4.24 2.8-7.04 0-2.72-1-5.08-2.8-7-1.64-1.88-4.04-3.04-6.68-3.04zm23.68 0c-2.72 0-5.08 1.16-6.8 3-1.72 1.8-2.72 4.278-2.72 7.038 0 2.72 1 5.2 2.72 7.04 1.72 1.8 4.08 2.92 6.8 2.92 2 0 3.8-.64 5.32-1.72.24.96 1.04 1.72 2.08 1.72 1.16 0 2.12-.958 2.12-2.118v-15.722c0-1.2-.96-2.16-2.12-2.16-1.04 0-1.84.76-2.08 1.76-1.52-1.08-3.32-1.76-5.32-1.76zm57.143 0c-1.2 0-2.122.958-2.122 2.118v15.762c0 1.16.92 2.12 2.12 2.12 1.04 0 1.92-.762 2.12-1.722.08-.16.08-.278.08-.398v-9.56c0-2.24 1.76-4.042 4-4.042 2.28 0 4.16 1.8 4.16 4.04v9.562c0 1.16 1 2.12 2.12 2.12 1.16 0 2.08-.96 2.08-2.12v-9.56c0-4.52-3.72-8.32-8.36-8.32-1.56 0-3.04.48-4.24 1.24-.36-.76-1.12-1.24-1.96-1.24zm30.69 0c-2.64 0-5.08 1.16-6.8 2.96-1.72 1.88-2.8 4.36-2.8 7.12 0 2.8 1.08 5.278 2.8 7.038 1.72 1.88 4.16 3.04 6.8 3.04 1.96 0 3.798-.6 5.238-1.6-.52 2.44-2.638 4.28-5.238 4.28-.84 0-1.6-.2-2.28-.56-1.12-.48-2.36-.08-2.88 1-.56 1.08-.08 2.4.96 2.88 1.24.64 2.72 1 4.2 1 5.32 0 9.6-4.36 9.6-9.6V143.17c0-1.16-.92-2.12-2.12-2.12-1.04 0-1.92.72-2.12 1.68-1.44-1.04-3.28-1.68-5.36-1.68zm-41.86.038c-1.2 0-2.16.92-2.16 2.2v15.6c0 1.2.96 2.16 2.16 2.16 1.24 0 2.16-.96 2.16-2.16v-15.6c0-1.28-.92-2.2-2.16-2.2zm-45.974 4.24c1.4 0 2.76.56 3.72 1.64.96 1 1.56 2.44 1.56 4.12 0 1.64-.6 3.08-1.56 4.12-.96 1-2.32 1.562-3.72 1.562-1.44 0-2.8-.56-3.72-1.56-.96-1.04-1.52-2.482-1.52-4.122 0-1.68.56-3.12 1.52-4.12.92-1.08 2.28-1.64 3.72-1.64zm87.834 0c1.52 0 2.76.6 3.8 1.72.88.96 1.52 2.48 1.52 4.08 0 1.68-.64 3.2-1.52 4.12-1.04 1.08-2.28 1.64-3.8 1.64-1.4 0-2.72-.56-3.68-1.64-.96-.92-1.6-2.44-1.6-4.12 0-1.6.64-3.12 1.6-4.08.96-1.12 2.28-1.72 3.68-1.72zm-111.514.08c1.4 0 2.68.64 3.68 1.52 1 1.08 1.56 2.52 1.56 4.16 0 1.72-.56 3.12-1.56 4.24-1 .96-2.28 1.48-3.68 1.48-1.52 0-2.84-.52-3.84-1.48-.92-1.12-1.44-2.52-1.44-4.24 0-1.64.52-3.08 1.44-4.16 1-.88 2.32-1.52 3.84-1.52zm49.446 0c1.48 0 2.76.6 3.76 1.64 1 1 1.6 2.44 1.6 4.04 0 1.52-.6 2.96-1.6 3.96-1 1.04-2.28 1.642-3.76 1.642-1.44 0-2.76-.6-3.76-1.64-1-1-1.6-2.442-1.6-3.962 0-1.6.6-3.04 1.6-4.04 1-1.04 2.32-1.64 3.76-1.64z" />
  <path id="path4727" fill="#526682" d="M167.596 158.37c0 1.64 1.32 2.96 2.96 2.96s3-1.32 3-2.96-1.36-3-3-3-2.96 1.36-2.96 3z" />
  <path id="path4729" fill="#526682" d="M176.814 158.37c0 1.64 1.32 2.96 2.96 2.96s3-1.32 3-2.96-1.36-3-3-3-2.96 1.36-2.96 3z" />
  <path id="path4731" fill="#526682" d="M186.033 158.37c0 1.64 1.32 2.96 2.96 2.96s3-1.32 3-2.96-1.36-3-3-3-2.96 1.36-2.96 3z"/>

  <circle cx="" cy="" r="8" fill="#edeff3" stroke="#526682" stroke-width="6">
    <animateMotion dur="3s" repeatCount="indefinite">
      <mpath xlink:href="#orbit"></mpath>
    </animateMotion>
  </circle>

  <path fill="#526682" id="dot-3" d="M105.525 19.47c-9.112 6.925-18.72 15.325-28.402 24.893C66.785 54.58 57.71 64.81 50.29 74.498c.606 5.65 2.15 11.023 4.48 15.955l3.28 5.87c2.48 3.82 5.474 7.268 8.87 10.273.23-.377.452-.75.695-1.135 6.6-10.464 18.008-24.505 32.002-38.336 13.913-13.75 27.817-24.74 37.947-30.896-2.99-3.407-6.425-6.413-10.23-8.907l-5.857-3.305c-4.928-2.353-10.3-3.92-15.952-4.545z"/>

  <path fill="#edeff3" id="dot-3" d="M100 25.16c-1.69 0-3.353.107-4.992.29-13.803 11.72-27.01 24.378-38.664 38.275-.22 1.782-.344 3.593-.344 5.435 0 13.526 6.09 25.59 15.666 33.653 6.518-9.803 14.766-18.587 22.522-27.276 12.302-12.42 24.982-24.91 39.658-34.473-8.063-9.71-20.21-15.904-33.846-15.904z"/>
</svg>